<svg width="18" height="18" viewBox="0 0 18 18" fill="none" xmlns="http://www.w3.org/2000/svg">
<g clip-path="url(#clip0)">
<path d="M6.52875 3.87095L5.15221 6.2552C4.78531 6.89068 4.11636 7.29173 3.38296 7.31591C2.6947 7.33859 2.06653 7.71564 1.72221 8.31201C1.17077 9.26713 1.49733 10.4897 2.45245 11.0411L11.6815 16.3695C12.6172 16.9097 13.8137 16.5891 14.3539 15.6534C14.7089 15.0386 14.7029 14.2798 14.3384 13.6706L14.3113 13.6254C13.905 12.9465 13.8984 12.1009 14.2939 11.4157L15.6196 9.11956C17.069 6.60919 16.2089 3.39919 13.6985 1.94982C11.1881 0.50046 7.97811 1.36058 6.52875 3.87095Z" stroke="#516272" stroke-width="1.3" stroke-linejoin="round"/>
<path d="M4.14551 14.2227C4.56639 15.8316 6.47358 16.8276 8.04506 16.4741" stroke="#516272" stroke-width="1.3" stroke-linecap="round" stroke-linejoin="round"/>
</g>
<defs>
<clipPath id="clip0">
<rect width="18" height="18" fill="white"/>
</clipPath>
</defs>
</svg>
