<svg width="18" height="19" viewBox="0 0 18 19" fill="none" xmlns="http://www.w3.org/2000/svg">
<path d="M6.75 16.25H11.25" stroke="#7D9DFF" stroke-width="1.3" stroke-linecap="round" stroke-linejoin="round"/>
<path d="M3.95166 7.81246C3.95073 7.14534 4.08184 6.48463 4.33745 5.86842C4.59306 5.25221 4.9681 4.69269 5.44096 4.2221C5.91382 3.75151 6.47514 3.37917 7.09257 3.12653C7.71 2.87389 8.37133 2.74596 9.03844 2.7501C11.8221 2.77079 14.0487 5.08457 14.0487 7.87601V8.37496C14.0487 10.8932 14.5755 12.3546 15.0396 13.1533C15.0896 13.2386 15.1162 13.3356 15.1167 13.4345C15.1172 13.5334 15.0917 13.6307 15.0426 13.7166C14.9935 13.8025 14.9227 13.8739 14.8372 13.9236C14.7517 13.9734 14.6546 13.9997 14.5557 14H3.44404C3.34513 13.9997 3.24803 13.9734 3.16254 13.9236C3.07706 13.8738 3.00621 13.8024 2.95714 13.7165C2.90807 13.6306 2.88252 13.5333 2.88307 13.4344C2.88361 13.3355 2.91023 13.2385 2.96025 13.1531C3.42454 12.3544 3.95166 10.8931 3.95166 8.37496L3.95166 7.81246Z" stroke="#7D9DFF" stroke-width="1.3" stroke-linecap="round" stroke-linejoin="round"/>
</svg>
