<svg width="58" height="26" viewBox="0 0 58 26" fill="none" xmlns="http://www.w3.org/2000/svg">
<path d="M18.6125 14.429C18.6125 14.2729 18.6444 4.96582 18.6444 4.96582L11.9835 12.7737H10.0393L3.34644 4.96582V20.6753H0V0H3.41019L11.0592 9.30702L18.6125 0H21.9591V14.429H18.6125Z" fill="#004FFF"/>
<path d="M41.4547 4.20066C41.877 4.20066 42.2899 4.07794 42.641 3.84801C42.9922 3.61808 43.2658 3.29128 43.4274 2.90892C43.5891 2.52656 43.6314 2.10582 43.549 1.69991C43.4666 1.294 43.2633 0.921153 42.9646 0.628509C42.6659 0.335865 42.2854 0.136574 41.8712 0.0558335C41.4571 -0.0249068 41.0277 0.0165306 40.6375 0.174909C40.2473 0.333286 39.9138 0.60149 39.6792 0.945602C39.4445 1.28971 39.3193 1.69429 39.3193 2.10815C39.3193 2.66311 39.5443 3.19535 39.9447 3.58778C40.3452 3.9802 40.8883 4.20066 41.4547 4.20066Z" fill="#004FFF"/>
<path d="M36.9602 13.3396C36.9759 12.5695 36.8282 11.8045 36.5265 11.0933C36.2247 10.382 35.7755 9.73994 35.2073 9.20763C33.9933 8.11865 32.4071 7.51465 30.7613 7.51465C29.1154 7.51465 27.5293 8.11865 26.3153 9.20763C25.7458 9.73899 25.2958 10.3809 24.9939 11.0924C24.6922 11.8038 24.5451 12.5693 24.5624 13.3396C24.5449 14.1104 24.6918 14.8764 24.9936 15.5884C25.2955 16.3004 25.7456 16.9429 26.3153 17.4746C27.5293 18.5637 29.1154 19.1677 30.7613 19.1677C32.4071 19.1677 33.9933 18.5637 35.2073 17.4746C35.7759 16.9421 36.2253 16.2994 36.5271 15.5876C36.8288 14.8758 36.9763 14.1102 36.9602 13.3396ZM30.7135 16.569C30.2122 16.5699 29.7175 16.4578 29.2675 16.2411C28.8176 16.0244 28.4246 15.7091 28.1192 15.3197C27.7126 14.7373 27.4951 14.0483 27.4951 13.3427C27.4951 12.6371 27.7126 11.948 28.1192 11.3657C28.425 10.9769 28.8177 10.6621 29.2672 10.4454C29.7167 10.2287 30.211 10.1161 30.7119 10.1161C31.2128 10.1161 31.7071 10.2287 32.1566 10.4454C32.6061 10.6621 32.9988 10.9769 33.3046 11.3657C33.7125 11.9476 33.9307 12.6369 33.9307 13.3427C33.9307 14.0486 33.7125 14.7379 33.3046 15.3197C32.9999 15.7093 32.6076 16.0247 32.1582 16.2414C31.7088 16.4581 31.2144 16.5702 30.7135 16.569Z" fill="#004FFF"/>
<path d="M57.9988 13.314C58.0161 12.5431 57.8692 11.7773 57.5674 11.0652C57.2655 10.3532 56.8154 9.71076 56.2459 9.17888C55.0319 8.08984 53.4457 7.48584 51.7999 7.48584C50.1541 7.48584 48.5679 8.08984 47.3539 9.17888C46.7854 9.71102 46.3359 10.3531 46.0336 11.0643C45.7313 11.7755 45.583 12.5404 45.5978 13.3107C45.5821 14.0814 45.7298 14.8468 46.0315 15.5585C46.3332 16.2703 46.7825 16.913 47.3508 17.4458C48.5648 18.5349 50.1509 19.1389 51.7967 19.1389C53.4426 19.1389 55.0287 18.5349 56.2427 17.4458C56.8123 16.9139 57.2623 16.2715 57.5641 15.5595C57.866 14.8474 58.013 14.0816 57.9957 13.3107L57.9988 13.314ZM51.7521 16.5401C51.2514 16.5409 50.7571 16.4286 50.3078 16.2119C49.8583 15.9953 49.466 15.6801 49.161 15.2908C48.7532 14.709 48.5349 14.0198 48.5349 13.314C48.5349 12.608 48.7532 11.9188 49.161 11.337C49.4668 10.9481 49.8595 10.6332 50.309 10.4166C50.7585 10.1999 51.2528 10.0872 51.7537 10.0872C52.2547 10.0872 52.7489 10.1999 53.1984 10.4166C53.6479 10.6332 54.0407 10.9481 54.3464 11.337C54.7542 11.9188 54.9726 12.608 54.9726 13.314C54.9726 14.0198 54.7542 14.709 54.3464 15.2908C54.0411 15.6806 53.6482 15.996 53.1983 16.2126C52.7483 16.4293 52.2535 16.5414 51.7521 16.5401Z" fill="#004FFF"/>
<path d="M37.7223 6.26172V9.5098H40.2974C40.2974 9.5098 40.3293 12.9734 40.2974 14.1259C40.3146 15.2109 40.1543 16.2917 39.8226 17.3271C39.4625 18.3504 38.898 19.2932 38.1621 20.1004C36.4984 21.9244 33.8117 22.9113 31.0836 22.9113C29.4924 22.9117 27.9287 22.5046 26.5473 21.7306C25.166 20.9565 24.015 19.8424 23.2083 18.4982L20.2666 19.8412C21.1106 21.3443 22.2795 22.6486 23.6915 23.6628C25.1035 24.677 26.7246 25.3767 28.4414 25.7128C30.2632 26.0734 32.1381 26.0945 33.9679 25.7752C36.5175 25.2599 37.5724 24.7165 39.0672 23.5891C40.265 22.6662 41.2757 21.5317 42.0471 20.2441C42.5447 19.4064 42.91 18.4999 43.1307 17.5551C43.4031 16.3979 43.5347 15.2134 43.5227 14.0259C43.5227 13.9635 43.5546 6.26484 43.5546 6.26484L37.7223 6.26172Z" fill="#004FFF"/>
</svg>
