<svg width="20" height="19" viewBox="0 0 20 19" fill="none" xmlns="http://www.w3.org/2000/svg">
<path d="M9.91317 15.6207C14.5747 15.6207 18.3536 12.489 18.3536 8.62578C18.3536 4.76259 14.5747 1.63086 9.91317 1.63086C5.25164 1.63086 1.47273 4.76259 1.47273 8.62578C1.47273 9.94448 1.91305 11.6534 2.67851 12.7061C2.97715 13.1169 3.28139 13.2891 2.67851 14.4549C2.4975 14.8049 2.15345 15.2075 1.76059 15.5995C1.43407 15.9253 1.81929 16.6117 2.25444 16.4587L6.14276 15.0916C6.24093 15.0571 6.34872 15.0628 6.44416 15.1043C7.58652 15.6005 8.4852 15.6207 9.91317 15.6207Z" stroke="#7D9DFF" stroke-width="1.5"/>
</svg>
