<svg width="16" height="14" viewBox="0 0 16 14" fill="none" xmlns="http://www.w3.org/2000/svg">
<path d="M8.3266 11.8391C12.0125 11.8391 15.0004 9.36282 15.0004 6.30821C15.0004 3.2536 12.0125 0.777344 8.3266 0.777344C4.64074 0.777344 1.65276 3.2536 1.65276 6.30821C1.65276 7.35091 2.00093 8.70212 2.60617 9.53454C2.84231 9.85933 3.08287 9.99545 2.60617 10.9173C2.52792 11.0686 2.41113 11.2323 2.27057 11.4003C1.97457 11.7541 2.37788 12.464 2.81304 12.311L5.3133 11.432C5.41147 11.3975 5.51916 11.4033 5.61486 11.4442C6.50338 11.8235 7.21054 11.8391 8.3266 11.8391Z" stroke="#4B5B75" stroke-width="1.5"/>
</svg>
