<svg width="62" height="62" viewBox="0 0 62 62" fill="none" xmlns="http://www.w3.org/2000/svg">
<rect width="62" height="62" rx="16" fill="#F1ECFF"/>
<path d="M43.5241 23.4796C42.2157 22.9501 42.6753 21.3515 43.5198 18.9506C44.3609 16.6383 45.436 15.7381 46.5749 16.0657C47.7138 16.3933 48.0592 17.2057 47.0203 20.061C45.9813 22.9162 44.8324 24.0091 43.5241 23.4796Z" fill="#5F7DE9"/>
<path d="M43.4352 19.4307C44.0174 19.595 46.3442 20.5301 46.6929 20.6366" stroke="black" stroke-width="0.324191"/>
<path d="M40.6353 18.1347C42.0879 18.2093 42.3514 16.5188 42.6031 13.9128C42.8195 11.391 42.2049 10.0844 40.9983 9.89525C39.7916 9.70605 39.1165 10.3136 38.8496 13.4278C38.5828 16.5419 39.1828 18.0602 40.6353 18.1347Z" fill="#5F7DE9"/>
<path d="M38.8634 13.8994C39.4681 13.8816 42.0943 14.1827 42.4589 14.1797" stroke="black" stroke-width="0.324191"/>
<rect x="12.2555" y="24.9473" width="20.7331" height="31.8511" rx="5" transform="rotate(-35.7734 12.2555 24.9473)" fill="white" stroke="black" stroke-width="0.32"/>
<path d="M22.0181 20.5059L38.1783 42.9345" stroke="black" stroke-width="0.32" stroke-linecap="square" stroke-linejoin="round"/>
<circle cx="28.7165" cy="21.112" r="1.97133" transform="rotate(-35.7734 28.7165 21.112)" fill="#EC8080"/>
<circle cx="20.4719" cy="27.0515" r="1.97133" transform="rotate(-35.7734 20.4719 27.0515)" fill="#EC8080"/>
<circle cx="34.2202" cy="28.7507" r="1.97133" transform="rotate(-35.7734 34.2202 28.7507)" fill="#EC8080"/>
<circle cx="25.9756" cy="34.6902" r="1.97133" transform="rotate(-35.7734 25.9756 34.6902)" fill="#EC8080"/>
<circle cx="39.8436" cy="36.5554" r="1.97133" transform="rotate(-35.7734 39.8436 36.5554)" fill="#EC8080"/>
<circle cx="31.599" cy="42.4958" r="1.97133" transform="rotate(-35.7734 31.599 42.4958)" fill="#EC8080"/>
</svg>
