<svg width="62" height="62" viewBox="0 0 62 62" fill="none" xmlns="http://www.w3.org/2000/svg">
<rect width="62" height="62" rx="16" fill="#ECF6FF"/>
<path d="M39.8565 30.681C37.7948 29.8435 37.5858 26.8335 39.2122 25.6558C41.0806 24.3028 43.7865 24.7538 44.5596 27.4597C45.3327 30.1656 41.9181 31.5186 39.8565 30.681Z" fill="#5FBFE9"/>
<path d="M46.6858 22.7567C44.1845 23.5264 42.194 20.8482 43.8287 18.7902C43.8432 18.7719 43.8602 18.7548 43.8784 18.7403C44.9069 17.9192 46.3089 17.6094 47.3945 18.3757C48.4898 19.1489 49.1984 21.9836 46.6858 22.7567Z" fill="#5FBFE9"/>
<path d="M41.3385 15.0904C40.633 13.423 37.1188 12.5216 35.3073 14.7374C35.2909 14.7576 35.2763 14.7811 35.2652 14.8046C33.3069 18.9672 37.029 20.8875 39.4701 20.4378C41.9183 19.9868 42.0472 16.7655 41.3385 15.0904Z" fill="#5FBFE9"/>
<path d="M36.0717 18.3265C35.2554 17.0511 35.5105 14.5002 38.2144 14.4492" stroke="white" stroke-width="0.286133"/>
<path d="M39.0768 29.1829C38.3822 27.6778 39.482 25.7676 40.9292 25.7676" stroke="white" stroke-width="0.286133"/>
<path d="M24.5991 31.918C25.1231 30.6955 24.3808 24.3258 23.9442 21.2937L30.639 20.0566C30.9058 21.4878 31.5122 24.7284 31.8033 26.242C32.1671 28.134 32.8221 30.8265 35.2234 32.9368C37.6248 35.0471 43.3008 39.6315 44.0285 40.1409C44.7562 40.6503 45.2656 42.7606 44.7562 43.5611C44.2468 44.3615 36.7516 46.3263 32.8221 46.9084C28.8925 47.4906 20.9607 48 19.7236 48C18.4865 48 17.7589 46.2535 17.9044 45.3075C18.0499 44.3615 23.9442 33.4462 24.5991 31.918Z" fill="white" stroke="black" stroke-width="0.286133"/>
<path d="M44.0925 20.9807C43.7589 19.6432 44.4762 18.5835 45.558 18.7445" stroke="white" stroke-width="0.286133"/>
<path d="M20.5968 46.3999C21.179 46.6182 26.688 46.3804 29.817 46.0165C32.9461 45.6527 37.6712 44.5933 40.5704 43.6445C43.6569 42.6343 43.1058 41.5938 42.6262 41.1143C41.572 40.06 39.7844 38.6666 38.6201 37.7934C37.5142 36.964 35.8936 35.5227 34.3336 34.2058C34.1954 34.0891 33.9913 34.1034 33.8535 34.2204C32.8389 35.0814 31.0274 35.4348 29.817 34.8296C28.5072 34.1747 26.2636 34.1531 25.1813 34.8296C24.5991 35.1934 22.1978 40.2873 20.5968 42.907C18.9959 45.5267 20.0147 46.1816 20.5968 46.3999Z" fill="#5F7DE9"/>
<path d="M31.1874 19.97L23.1869 21.3818C23.0023 21.4144 22.8263 21.2912 22.7937 21.1066L22.4751 19.3014C22.4425 19.1166 22.566 18.9404 22.7509 18.9081L30.8048 17.4986C30.993 17.4657 31.1713 17.5945 31.1991 17.7835L31.4642 19.5864C31.491 19.7681 31.3683 19.9381 31.1874 19.97Z" fill="white" stroke="black" stroke-width="0.286133"/>
</svg>
