<svg width="46" height="46" viewBox="0 0 46 46" fill="none" xmlns="http://www.w3.org/2000/svg">
<rect width="46" height="46" rx="14" fill="#DCF6FF"/>
<path d="M20 27.4993H13.8125C13.6633 27.4993 13.5202 27.44 13.4148 27.3345C13.3093 27.229 13.25 27.086 13.25 26.9368V20.7492C13.25 18.959 13.9612 17.2422 15.227 15.9763C16.4929 14.7104 18.2098 13.9993 20 13.9993H20C21.7902 13.9993 23.5071 14.7104 24.773 15.9763C26.0388 17.2422 26.75 18.9591 26.75 20.7493V20.7493C26.75 22.5395 26.0388 24.2564 24.773 25.5222C23.5071 26.7881 21.7902 27.4993 20 27.4993V27.4993Z" stroke="#12ADE2" stroke-width="1.5" stroke-linecap="round" stroke-linejoin="round"/>
<path d="M19.6338 27.4995C20.0996 28.8156 20.9618 29.9549 22.1018 30.7607C23.2418 31.5666 24.6035 31.9992 25.9996 31.9993H32.1871C32.3363 31.9993 32.4794 31.94 32.5849 31.8345C32.6903 31.729 32.7496 31.5859 32.7496 31.4368V25.2492C32.7496 23.5229 32.0881 21.8621 30.9012 20.6085C29.7143 19.3548 28.0922 18.6036 26.3684 18.5092" stroke="#12ADE2" stroke-width="1.5" stroke-linecap="round" stroke-linejoin="round"/>
</svg>
