<svg width="62" height="62" viewBox="0 0 62 62" fill="none" xmlns="http://www.w3.org/2000/svg">
<rect width="62" height="62" rx="16" fill="#E9E7FF"/>
<path d="M41.1325 34.2959L31.9548 43.3708L33.9791 46.1911L43.6147 35.9406L41.1325 34.2959Z" fill="#5F7DE9"/>
<path d="M34.3116 32.4531L30.2258 36.7023L30.757 39.8075L31.2288 41.1567L38.1265 33.3241L36.9674 32.9026L34.3116 32.4531Z" fill="#EC8080"/>
<path d="M28.8858 22.7119L21.8594 29.4084L25.5439 31.2403L29.7877 26.8333L28.8858 22.7119Z" fill="#5F7DE9"/>
<path d="M25.8367 16.9785L16.8456 25.5514L19.464 27.6082L27.8292 20.3856L25.8367 16.9785Z" fill="#EC8080"/>
<path d="M23.2581 13.5664C27.6452 18.8567 30.2373 23.8801 30.0968 31.889C29.9677 39.2438 31 43.3728 36.0322 48.5341" stroke="black" stroke-width="0.308359"/>
<path d="M15 23.501C19 27.8881 24.2909 31.9933 30.0967 32.1461C35 32.2752 39.7741 33.4364 42.0967 34.9848C43.9548 36.2235 46.1397 38.4257 46.9999 39.3719" stroke="black" stroke-width="0.308359"/>
</svg>
