<svg width="62" height="62" viewBox="0 0 62 62" fill="none" xmlns="http://www.w3.org/2000/svg">
<rect width="62" height="62" rx="16" fill="#FFF3DB"/>
<path d="M37.5259 47.1394C36.8552 46.9158 31.4707 44.7173 28.8622 43.646C28.8622 43.646 29.5609 36.7989 30.2596 32.6068L33.1941 15L50.1022 21.0087C49.0309 23.3376 46.2734 29.3649 44.9319 32.6068C43.2551 36.6591 38.3643 47.4189 37.5259 47.1394Z" fill="white" stroke="black" stroke-width="0.32904"/>
<path d="M30.8698 36.1776C30.9995 34.5887 32.3428 26.5697 32.9982 22.7588C36.4642 25.6347 39.5847 23.0851 42.0978 23.3688C44.1083 23.5958 45.9351 25.0307 46.5972 25.7198C45.7865 27.3412 43.8327 31.4594 42.5032 34.9616C40.8413 39.3393 37.5985 45.7437 37.2337 45.8248C36.9419 45.8896 32.275 43.8521 29.9781 42.8252C30.2213 41.2714 30.7401 37.7666 30.8698 36.1776Z" fill="#E59449"/>
<path d="M15.4693 36.802C9.46759 35.3763 9.43423 26.2213 15.8318 26.9677C18.0314 27.2243 17.7699 25.0579 20.5353 23.7859C22.9963 22.6539 26.69 23.7484 27.1064 28.6278C27.6842 35.3985 20.9503 38.104 15.4693 36.802Z" fill="#67DDAB"/>
<path d="M17.8378 27.8232C17.5612 26.2738 15.878 24.4569 15.071 23.7422" stroke="black" stroke-width="0.32904"/>
<rect width="62" height="62" rx="16" fill="#FFECC9"/>
<path d="M32.5333 43.7368C28.5573 40.8968 22.1587 37.1472 15.0672 30.8857C14.0022 31.5958 13.0955 40.1229 17.9227 43.7368C23.2254 47.7066 30.8293 46.2928 32.5333 43.7368Z" fill="#F4BF59"/>
<path d="M39.2924 15.9001C32.0829 14.7909 24.452 17.8997 23.4474 24.9318C22.3383 32.6959 26.7748 38.2417 32.5583 39.2716C39.0472 40.4272 44.6005 38.3209 47.1358 32.1413C49.671 25.9617 46.502 17.0092 39.2924 15.9001Z" fill="#E69449" stroke="black" stroke-width="0.36259"/>
<path d="M24.7474 27.9557C24.7474 33.5776 29.0538 38.9435 36.9049 38.5569C30.3856 35.7867 29.2853 31.4539 29.2853 27.9557C29.2853 23.5127 30.6237 18.9424 35.8526 16.5693C28.3512 16.9756 24.7475 21.6873 24.7474 27.9557Z" fill="#F4BF59"/>
<path d="M39.2924 15.9001C32.0829 14.7909 24.452 17.8997 23.4474 24.9318C22.3383 32.6959 26.7748 38.2417 32.5583 39.2716C39.0472 40.4272 44.6005 38.3209 47.1358 32.1413C49.671 25.9617 46.502 17.0092 39.2924 15.9001Z" stroke="black" stroke-width="0.36259"/>
<path d="M15.0349 30.9287C14.0562 33.6071 13.6442 37.4186 15.756 41.2301C17.8678 45.0416 22.8639 46.3293 26.5209 46.1233C30.1779 45.9173 32.1352 44.3205 32.5988 43.8055" stroke="#E59449" stroke-width="1.39458"/>
<path d="M15.1894 37.8818L23.07 37.4697" stroke="white" stroke-width="0.36259"/>
<path d="M24.7696 45.4015L24.7696 38.6025" stroke="white" stroke-width="0.36259"/>
<path d="M18.6918 43.4443L24.2133 38.0221" stroke="white" stroke-width="0.36259"/>
</svg>
