<svg width="62" height="62" viewBox="0 0 62 62" fill="none" xmlns="http://www.w3.org/2000/svg">
<rect width="62" height="62" rx="16" fill="#FFF3DB"/>
<path d="M37.526 47.1394C36.8552 46.9158 31.4707 44.7173 28.8623 43.646C28.8623 43.646 29.561 36.7989 30.2597 32.6068L33.1941 15L50.1022 21.0087C49.0309 23.3376 46.2735 29.3649 44.932 32.6068C43.2552 36.6591 38.3644 47.4189 37.526 47.1394Z" fill="white" stroke="black" stroke-width="0.32904"/>
<path d="M30.8699 36.1776C30.9996 34.5887 32.3429 26.5697 32.9983 22.7588C36.4642 25.6347 39.5848 23.0851 42.0979 23.3688C44.1084 23.5958 45.9352 25.0307 46.5972 25.7198C45.7865 27.3412 43.8328 31.4594 42.5033 34.9616C40.8413 39.3393 37.5986 45.7437 37.2338 45.8248C36.9419 45.8896 32.2751 43.8521 29.9781 42.8252C30.2214 41.2714 30.7402 37.7666 30.8699 36.1776Z" fill="#E59449"/>
<path d="M15.4693 36.802C9.46759 35.3763 9.43423 26.2213 15.8318 26.9677C18.0314 27.2243 17.7699 25.0579 20.5353 23.7859C22.9963 22.6539 26.69 23.7484 27.1064 28.6278C27.6842 35.3985 20.9503 38.104 15.4693 36.802Z" fill="#67DDAB"/>
<path d="M17.8378 27.8232C17.5612 26.2738 15.878 24.4569 15.071 23.7422" stroke="black" stroke-width="0.32904"/>
</svg>
