<svg width="20" height="19" viewBox="0 0 20 19" fill="none" xmlns="http://www.w3.org/2000/svg">
<path d="M10.9688 13.5062C10.6759 13.7991 10.6759 14.274 10.9688 14.5669C11.2617 14.8598 11.7366 14.8598 12.0295 14.5669L10.9688 13.5062ZM6.69648 13.0109C6.40358 12.718 5.92871 12.718 5.63582 13.0109C5.34292 13.3038 5.34292 13.7787 5.63582 14.0716L6.69648 13.0109ZM17.4597 3.8334L16.9293 4.36373L17.4597 3.8334ZM17.4597 8.07604L16.9293 7.54571L17.4597 8.07604ZM16.2217 2.59544L15.6914 3.12577L16.2217 2.59544ZM2.9585 12.3408L2.2364 12.1381L2.9585 12.3408ZM3.98127 10.5932L3.45094 10.0629L3.98127 10.5932ZM7.41013 17.0123L7.28099 16.2735L7.41013 17.0123ZM2.91412 17.7982L2.78498 17.0594L2.91412 17.7982ZM2.50123 16.7456L3.6806 12.5435L2.2364 12.1381L1.05703 16.3403L2.50123 16.7456ZM4.5116 11.1236L12.5094 3.12577L11.4487 2.06511L3.45094 10.0629L4.5116 11.1236ZM15.6914 3.12577L16.9293 4.36373L17.99 3.30307L16.752 2.06511L15.6914 3.12577ZM16.9293 7.54571L10.9688 13.5062L12.0295 14.5669L17.99 8.60637L16.9293 7.54571ZM3.04326 18.537L7.53927 17.7511L7.28099 16.2735L2.78498 17.0594L3.04326 18.537ZM8.47538 14.7898L6.69648 13.0109L5.63582 14.0716L7.41472 15.8505L8.47538 14.7898ZM16.9293 4.36373C17.808 5.24241 17.808 6.66703 16.9293 7.54571L17.99 8.60637C19.4545 7.1419 19.4545 4.76753 17.99 3.30307L16.9293 4.36373ZM12.5094 3.12577C13.3881 2.24709 14.8127 2.24709 15.6914 3.12577L16.752 2.06511C15.2876 0.600644 12.9132 0.600649 11.4487 2.06511L12.5094 3.12577ZM3.6806 12.5435C3.83124 12.0067 4.11741 11.5178 4.5116 11.1236L3.45094 10.0629C2.87482 10.639 2.45657 11.3537 2.2364 12.1381L3.6806 12.5435ZM7.53927 17.7511C8.93519 17.5071 9.47741 15.7919 8.47538 14.7898L7.41472 15.8505C7.55787 15.9937 7.48041 16.2387 7.28099 16.2735L7.53927 17.7511ZM1.05703 16.3403C0.709001 17.5804 1.77453 18.7588 3.04326 18.537L2.78498 17.0594C2.60373 17.0911 2.45151 16.9228 2.50123 16.7456L1.05703 16.3403Z" fill="#7D9DFF"/>
</svg>
