<svg width="22" height="22" viewBox="0 0 22 22" fill="none" xmlns="http://www.w3.org/2000/svg">
<path d="M15.2733 1.72746L15.3286 2.3751L15.2733 1.72746ZM10.9395 20.2925L10.6105 20.8531C10.8136 20.9723 11.0654 20.9723 11.2685 20.8531L10.9395 20.2925ZM6.65164 1.72746L6.59637 2.3751L6.65164 1.72746ZM0.876829 6.19224L1.52117 6.27783L0.876829 6.19224ZM4.08601 13.8657C3.86318 13.5843 3.45438 13.5367 3.17292 13.7596C2.89146 13.9824 2.84392 14.3912 3.06675 14.6727L4.08601 13.8657ZM7.63535 10.81L8.24845 11.0259L8.249 11.0243L7.63535 10.81ZM8.56435 8.14983L7.95124 7.93395L7.95069 7.93553L8.56435 8.14983ZM9.43789 8.1735L8.81399 8.35587L9.43789 8.1735ZM11.2197 14.2692L11.8436 14.0868V14.0868L11.2197 14.2692ZM12.1033 14.2605L11.476 14.0904V14.0904L12.1033 14.2605ZM12.6042 12.4134L13.2316 12.5835L12.6042 12.4134ZM16.5593 12.3857C16.9183 12.3857 17.2093 12.0946 17.2093 11.7357C17.2093 11.3767 16.9183 11.0857 16.5593 11.0857V12.3857ZM11.5782 4.59849L10.977 4.35134L11.5782 4.59849ZM12.1794 4.84563C12.4191 4.26239 12.7451 3.68699 13.2316 3.23903C13.7072 2.80107 14.3656 2.45729 15.3286 2.3751L15.218 1.07981C13.9708 1.18625 13.0407 1.64755 12.351 2.28272C11.672 2.9079 11.2556 3.67371 10.977 4.35134L12.1794 4.84563ZM15.3286 2.3751C16.344 2.28845 17.6533 2.61323 18.701 3.44399C19.7263 4.25704 20.5203 5.56912 20.5203 7.52337H21.8203C21.8203 5.16995 20.8432 3.48359 19.5087 2.42537C18.1965 1.38486 16.5573 0.965521 15.218 1.07981L15.3286 2.3751ZM20.5203 7.52337C20.5203 11.4747 17.6284 15.6127 10.6105 19.732L11.2685 20.8531C18.4042 16.6647 21.8203 12.1874 21.8203 7.52337H20.5203ZM10.9317 4.35173C10.665 3.67419 10.2604 2.90775 9.58457 2.28183C8.89785 1.64582 7.96554 1.18722 6.70691 1.07981L6.59637 2.3751C7.57583 2.45869 8.23362 2.80254 8.70123 3.23561C9.17972 3.67877 9.49374 4.24802 9.72204 4.82793L10.9317 4.35173ZM6.70691 1.07981C4.12728 0.859674 0.744175 2.25459 0.232489 6.10665L1.52117 6.27783C1.91256 3.33138 4.46666 2.19336 6.59637 2.3751L6.70691 1.07981ZM0.232489 6.10665C0.0944706 7.14568 0.238844 8.06263 0.550542 9.05623L1.79094 8.66711C1.51715 7.79436 1.41528 7.07499 1.52117 6.27783L0.232489 6.10665ZM3.06675 14.6727C5.00419 17.12 8.19437 19.4349 10.6105 20.8531L11.2685 19.732C8.91182 18.3487 5.879 16.1306 4.08601 13.8657L3.06675 14.6727ZM8.249 11.0243L9.178 8.36414L7.95069 7.93553L7.02169 10.5957L8.249 11.0243ZM8.81399 8.35587L10.5958 14.4516L11.8436 14.0868L10.0618 7.99113L8.81399 8.35587ZM12.7306 14.4307L13.2316 12.5835L11.9769 12.2433L11.476 14.0904L12.7306 14.4307ZM13.4902 12.3857H16.5593V11.0857H13.4902V12.3857ZM13.2316 12.5835C13.2632 12.4667 13.3692 12.3857 13.4902 12.3857V11.0857C12.7823 11.0857 12.1622 11.56 11.9769 12.2433L13.2316 12.5835ZM10.5958 14.4516C10.91 15.5263 12.4376 15.5113 12.7306 14.4307L11.476 14.0904C11.4847 14.0582 11.5098 14.0165 11.5521 13.986C11.5897 13.9589 11.6277 13.9497 11.6584 13.9494C11.6891 13.9491 11.7273 13.9575 11.7654 13.9839C11.8084 14.0136 11.8342 14.0548 11.8436 14.0868L10.5958 14.4516ZM9.17745 8.36571C9.16631 8.39736 9.13937 8.43551 9.09775 8.46232C9.06039 8.48639 9.02296 8.49403 8.99213 8.4932C8.9613 8.49236 8.92435 8.48271 8.88834 8.45665C8.84824 8.42762 8.82341 8.38807 8.81399 8.35587L10.0618 7.99113C9.75951 6.95704 8.30906 6.91773 7.95124 7.93395L9.17745 8.36571ZM6.76599 12.4255C7.10817 12.3343 7.43088 12.0906 7.6571 11.8737C7.88647 11.6539 8.13513 11.3477 8.24845 11.0259L7.02224 10.5941C7.0062 10.6397 6.92161 10.7779 6.75751 10.9353C6.68359 11.0061 6.60861 11.066 6.54216 11.1096C6.50932 11.1311 6.48186 11.1465 6.46063 11.1568C6.43874 11.1674 6.42906 11.1699 6.43117 11.1693L6.76599 12.4255ZM0.550542 9.05623C1.36613 11.6561 4.17446 12.9677 6.73146 12.4337L6.4657 11.1611C4.45005 11.5821 2.37357 10.5244 1.79094 8.66711L0.550542 9.05623ZM10.977 4.35134C10.9533 4.40889 10.9299 4.45074 10.9102 4.47986C10.8903 4.50905 10.8757 4.52328 10.8698 4.52832C10.8642 4.53318 10.8684 4.52817 10.8841 4.52191C10.9005 4.51536 10.9242 4.50961 10.9527 4.5098C10.9811 4.50999 11.0048 4.51606 11.0213 4.52289C11.0371 4.52943 11.0413 4.53459 11.0359 4.52976C11.0302 4.52475 11.0158 4.51042 10.9965 4.48104C10.9772 4.45172 10.9545 4.4096 10.9317 4.35173L9.72204 4.82793C9.9163 5.32138 10.3237 5.8056 10.9439 5.80977C11.5636 5.81394 11.9778 5.33588 12.1794 4.84563L10.977 4.35134Z" fill="#919EAB"/>
</svg>
