<svg width="22" height="24" viewBox="0 0 22 24" fill="none" xmlns="http://www.w3.org/2000/svg">
<path fill-rule="evenodd" clip-rule="evenodd" d="M10.9981 1C6.58944 1 3.51666 4.03205 3.51666 6.75291C3.51666 9.05518 2.78883 11.3416 2.14552 12.2807C1.6296 13.0348 1.22217 13.6306 1.22217 14.9251C1.43282 17.0137 3.00327 18.1111 10.9981 18.1111C18.9487 18.1111 20.5683 16.965 20.7777 14.8532C20.7739 13.6306 20.3665 13.0348 19.8506 12.2807C19.2073 11.3416 18.4794 9.05518 18.4794 6.75291C18.4794 4.03205 15.4067 1 10.9981 1Z" stroke="#919EAB" stroke-width="1.3"/>
<path d="M7.94434 21.167C9.44125 23.4124 12.4351 23.4124 13.932 21.167" stroke="#919EAB" stroke-width="1.3" stroke-linecap="round" stroke-linejoin="round"/>
</svg>
