<svg width="24" height="24" viewBox="0 0 24 24" fill="none" xmlns="http://www.w3.org/2000/svg">
<path d="M9.08366 20.0208H4.70866C4.51527 20.0208 4.32981 19.944 4.19306 19.8072C4.05632 19.6705 3.97949 19.485 3.97949 19.2916V15.2187C3.97949 15.1229 3.99835 15.0281 4.035 14.9396C4.07164 14.8512 4.12535 14.7708 4.19306 14.7031L15.1306 3.76557C15.2673 3.62882 15.4528 3.552 15.6462 3.552C15.8395 3.552 16.025 3.62882 16.1618 3.76557L20.2347 7.83854C20.3715 7.97528 20.4483 8.16075 20.4483 8.35414C20.4483 8.54753 20.3715 8.73299 20.2347 8.86974L9.08366 20.0208Z" stroke="#7D9DFF" stroke-width="1.3" stroke-linecap="round" stroke-linejoin="round"/>
<path d="M12.7295 6.1665L17.8337 11.2707" stroke="#7D9DFF" stroke-width="1.3" stroke-linecap="round" stroke-linejoin="round"/>
</svg>
