<svg width="32" height="32" viewBox="0 0 32 32" fill="none" xmlns="http://www.w3.org/2000/svg">
<circle cx="16" cy="16" r="15" fill="#96AFC7" stroke="white" stroke-width="1.5"/>
<path d="M13.8125 22.0157H10.5312C10.3862 22.0157 10.2471 21.958 10.1446 21.8555C10.042 21.7529 9.98438 21.6138 9.98438 21.4688V18.4141C9.98437 18.3422 9.99852 18.2711 10.026 18.2048C10.0535 18.1384 10.0938 18.0781 10.1446 18.0274L18.3477 9.82424C18.4502 9.72168 18.5893 9.66406 18.7344 9.66406C18.8794 9.66406 19.0185 9.72168 19.1211 9.82424L22.1758 12.879C22.2784 12.9815 22.336 13.1206 22.336 13.2657C22.336 13.4107 22.2784 13.5498 22.1758 13.6524L13.8125 22.0157Z" stroke="white" stroke-width="1.3" stroke-linecap="round" stroke-linejoin="round"/>
<path d="M16.5469 11.625L20.375 15.4531" stroke="white" stroke-width="1.3" stroke-linecap="round" stroke-linejoin="round"/>
</svg>
