<svg width="70" height="69" viewBox="0 0 70 69" fill="none" xmlns="http://www.w3.org/2000/svg">
<rect width="70" height="68.6" fill="white"/>
<path d="M52.3994 15.1152L27.4643 9.71859C22.0178 8.53981 16.6094 11.9912 15.3843 17.4275L9.95811 41.5065C8.73303 46.9427 12.1552 52.3053 17.6017 53.4841L33.3106 56.8839L42.5368 58.8807C47.9833 60.0595 53.3917 56.6081 54.6168 51.1718L60.043 27.0928C61.2681 21.6566 57.8459 16.294 52.3994 15.1152Z" fill="#E3EEFF" stroke="black" stroke-width="1.00901" stroke-linejoin="round"/>
<path d="M47.8797 30.3505C48.5493 27.3793 47.987 24.2691 46.3166 21.7041C44.6462 19.1391 42.0045 17.3295 38.9727 16.6733C35.9408 16.0172 32.7671 16.5682 30.1498 18.2052C27.5325 19.8421 25.686 22.431 25.0164 25.4022L36.448 27.8764L47.8797 30.3505Z" fill="white" stroke="black" stroke-width="1.00901" stroke-linejoin="round"/>
<path d="M40.1975 28.0923C40.4096 27.1509 40.2315 26.1654 39.7022 25.3526C39.1729 24.5399 38.3359 23.9665 37.3752 23.7586C36.4145 23.5506 35.4089 23.7252 34.5796 24.2439C33.7502 24.7626 33.1651 25.5829 32.953 26.5244L36.5752 27.3084L40.1975 28.0923Z" fill="#F4BF59"/>
<path d="M36.9124 27.6919L42.9435 22.4495" stroke="black" stroke-width="1.00901" stroke-linecap="square" stroke-linejoin="round"/>
<path d="M38.9727 16.6731L38.524 18.6639" stroke="black" stroke-width="1.00901" stroke-linecap="square" stroke-linejoin="round"/>
<path d="M28.0068 20.9983L29.5418 22.3745" stroke="black" stroke-width="1.00901" stroke-linecap="square" stroke-linejoin="round"/>
<path d="M47.6631 25.1868L45.6836 25.8141" stroke="black" stroke-width="1.00901" stroke-linecap="square" stroke-linejoin="round"/>
<path d="M38.1386 42.4436C37.3827 39.2999 35.2415 35.2366 32.6883 35.4765C29.4026 35.7851 29.9827 39.4704 32.0002 43.861C34.9106 50.1947 32.212 53.3887 34.4824 54.1847C38.6896 55.6598 39.0861 46.3842 38.1386 42.4436Z" fill="#C6DDFF"/>
<path d="M19.4857 40.6166C18.6403 36.9797 19.0571 31.6171 22.0314 30.953C25.0058 30.289 25.8022 34.4968 25.4007 39.296C24.97 44.4445 27.8414 48.2816 26.7307 49.1706C23.2699 51.9406 20.4033 44.5639 19.4857 40.6166Z" fill="#C6DDFF"/>
</svg>
