<svg width="70" height="70" viewBox="0 0 70 70" fill="none" xmlns="http://www.w3.org/2000/svg">
<rect width="70" height="70" fill="white"/>
<rect x="13.834" y="23.811" width="20.6112" height="35.208" rx="1.34535" transform="rotate(-15.5766 13.834 23.811)" stroke="black" stroke-width="1.00901" stroke-linejoin="round"/>
<path d="M23.6494 46.7466L37.1545 42.9818L38.6217 48.2452C38.8212 48.9609 38.4028 49.7029 37.6871 49.9024L26.7738 52.9446C26.0581 53.1441 25.3162 52.7257 25.1167 52.0099L23.6494 46.7466Z" fill="#EC8080"/>
<path d="M18.4833 20.4441C18.2838 19.7284 18.7023 18.9865 19.418 18.7869L26.3116 16.8652C27.0274 16.6657 27.7693 17.0842 27.9688 17.7999L28.5045 19.7213L19.019 22.3656L18.4833 20.4441Z" stroke="black" stroke-width="1.00901" stroke-linejoin="round"/>
<path d="M50.4375 9.02441L57.2483 9.82095L49.475 17.2541L56.2858 18.0507" stroke="black" stroke-width="1.00901" stroke-linecap="square" stroke-linejoin="round"/>
<path d="M45.6885 25.5906L51.3165 25.0511L46.3403 32.3911L51.9684 31.8517" stroke="black" stroke-width="1.00901" stroke-linecap="square" stroke-linejoin="round"/>
</svg>
