<svg width="70" height="70" viewBox="0 0 70 70" fill="none" xmlns="http://www.w3.org/2000/svg">
<rect width="70" height="70" fill="white"/>
<ellipse cx="20.7472" cy="25.9741" rx="11.6619" ry="14.3614" transform="rotate(-23.8288 20.7472 25.9741)" fill="#74ABFF"/>
<path d="M37.9166 56.1554C38.8406 57.9563 38.0588 60.1636 36.2072 60.9813C34.3557 61.7991 32.1976 60.8902 31.4889 58.9942L25.672 43.4316L24.2251 39.5606L28.4452 37.6968L37.9166 56.1554Z" fill="#74ABFF"/>
<path d="M24.9473 40.0359L28.3109 38.5642" stroke="black" stroke-width="1.00901" stroke-linecap="square" stroke-linejoin="round"/>
<path d="M16.7188 19.2493L18.4897 18.4671" stroke="white" stroke-width="1.00901" stroke-linecap="square" stroke-linejoin="round"/>
<path d="M24.0127 18.8049L25.7837 18.0228" stroke="white" stroke-width="1.00901" stroke-linecap="square" stroke-linejoin="round"/>
<path d="M11.4766 24.3413L13.2475 23.5592" stroke="white" stroke-width="1.00901" stroke-linecap="square" stroke-linejoin="round"/>
<path d="M18.7705 23.897L20.5415 23.1148" stroke="white" stroke-width="1.00901" stroke-linecap="square" stroke-linejoin="round"/>
<path d="M26.0654 23.4534L27.8364 22.6712" stroke="white" stroke-width="1.00901" stroke-linecap="square" stroke-linejoin="round"/>
<path d="M13.5303 28.9893L15.3013 28.2071" stroke="white" stroke-width="1.00901" stroke-linecap="square" stroke-linejoin="round"/>
<path d="M20.8242 28.5454L22.5952 27.7632" stroke="white" stroke-width="1.00901" stroke-linecap="square" stroke-linejoin="round"/>
<path d="M28.1182 28.1011L29.8891 27.3189" stroke="white" stroke-width="1.00901" stroke-linecap="square" stroke-linejoin="round"/>
<path d="M15.582 33.637L17.353 32.8548" stroke="white" stroke-width="1.00901" stroke-linecap="square" stroke-linejoin="round"/>
<path d="M22.876 33.1934L24.647 32.4112" stroke="white" stroke-width="1.00901" stroke-linecap="square" stroke-linejoin="round"/>
<path d="M13.7217 17.7954L15.4927 17.0132" stroke="white" stroke-width="1.00901" stroke-linecap="square" stroke-linejoin="round"/>
<path d="M21.0166 17.3511L22.7876 16.5689" stroke="white" stroke-width="1.00901" stroke-linecap="square" stroke-linejoin="round"/>
<path d="M15.7754 22.4431L17.5464 21.661" stroke="white" stroke-width="1.00901" stroke-linecap="square" stroke-linejoin="round"/>
<path d="M23.0693 21.9988L24.8403 21.2166" stroke="white" stroke-width="1.00901" stroke-linecap="square" stroke-linejoin="round"/>
<path d="M17.8271 27.0916L19.5981 26.3094" stroke="white" stroke-width="1.00901" stroke-linecap="square" stroke-linejoin="round"/>
<path d="M25.1211 26.6472L26.8921 25.8651" stroke="white" stroke-width="1.00901" stroke-linecap="square" stroke-linejoin="round"/>
<path d="M19.8809 31.7393L21.6518 30.9571" stroke="white" stroke-width="1.00901" stroke-linecap="square" stroke-linejoin="round"/>
<path d="M27.1748 31.2949L28.9458 30.5128" stroke="white" stroke-width="1.00901" stroke-linecap="square" stroke-linejoin="round"/>
<path d="M21.9326 36.387L23.7036 35.6048" stroke="white" stroke-width="1.00901" stroke-linecap="square" stroke-linejoin="round"/>
<path d="M17.6621 16.0557L19.4331 15.2735" stroke="white" stroke-width="1.00901" stroke-linecap="square" stroke-linejoin="round"/>
<path d="M12.4209 21.1477L14.1919 20.3655" stroke="white" stroke-width="1.00901" stroke-linecap="square" stroke-linejoin="round"/>
<path d="M19.7148 20.7034L21.4858 19.9212" stroke="white" stroke-width="1.00901" stroke-linecap="square" stroke-linejoin="round"/>
<path d="M14.4736 25.7954L16.2446 25.0133" stroke="white" stroke-width="1.00901" stroke-linecap="square" stroke-linejoin="round"/>
<path d="M21.7676 25.3511L23.5386 24.5689" stroke="white" stroke-width="1.00901" stroke-linecap="square" stroke-linejoin="round"/>
<path d="M16.5254 30.4431L18.2964 29.661" stroke="white" stroke-width="1.00901" stroke-linecap="square" stroke-linejoin="round"/>
<path d="M23.8213 29.9988L25.5923 29.2166" stroke="white" stroke-width="1.00901" stroke-linecap="square" stroke-linejoin="round"/>
<path d="M18.5791 35.0908L20.3501 34.3087" stroke="white" stroke-width="1.00901" stroke-linecap="square" stroke-linejoin="round"/>
<path d="M25.873 34.6465L27.644 33.8643" stroke="white" stroke-width="1.00901" stroke-linecap="square" stroke-linejoin="round"/>
<path d="M49.403 32.8463C54.1905 28.5939 52.0371 20.292 48.9749 20.0741C46.5424 19.9009 45.3984 21.875 46.8219 26.2772C48.3863 31.1151 46.9752 33.98 44.1704 33.6242C40.1172 33.1101 38.9162 20.7673 45.6161 18.1667C52.3159 15.5661 52.1369 29.1638 44.9756 29.56C37.8143 29.9562 37.0876 20.4316 42.7469 16.855" stroke="black" stroke-width="1.00901" stroke-linecap="square" stroke-linejoin="round"/>
<path d="M60.5951 35.9695C62.7699 44.4604 53.9686 52.2298 50.3275 50.1319C47.4352 48.4653 47.6493 45.3495 52.6357 41.4453C58.1157 37.1547 58.709 32.8238 55.2544 31.0793C50.2622 28.5583 39.4467 41.6417 45.056 49.7233C50.6654 57.8049 60.8764 42.241 53.0553 36.307C45.2341 30.3729 37.115 40.6221 40.7964 49.014" stroke="black" stroke-width="1.00901" stroke-linecap="square" stroke-linejoin="round"/>
</svg>
