<svg width="26" height="26" viewBox="0 0 26 26" fill="none" xmlns="http://www.w3.org/2000/svg">
<path d="M7.41504 10.5886V19.9999C7.41504 22.209 9.2059 23.9999 11.415 23.9999H14.5851C16.7943 23.9999 18.5851 22.209 18.5851 19.9999V10.697C18.5851 9.36306 17.9201 8.11689 16.812 7.37424L15.9687 6.80906C15.4147 6.43773 15.0822 5.81464 15.0822 5.14767V2.48145C15.0822 2.2053 14.8583 1.98145 14.5822 1.98145H11.1141C10.8379 1.98145 10.6141 2.2053 10.6141 2.48145V5.20185C10.6141 5.8387 10.3108 6.43747 9.79736 6.81426L9.04848 7.36384C8.02163 8.1174 7.41504 9.31495 7.41504 10.5886Z" stroke="#2C4358" stroke-width="1.3" stroke-linejoin="round"/>
<path d="M7.48926 12.0952H18.4056" stroke="#2C4358" stroke-width="1.3"/>
<path d="M7.48926 18.3247H18.4056" stroke="#2C4358" stroke-width="1.3"/>
</svg>
