<svg width="46" height="46" viewBox="0 0 46 46" fill="none" xmlns="http://www.w3.org/2000/svg">
<rect width="46" height="46" rx="14" fill="#DCF6FF"/>
<path d="M20 27.499H13.8125C13.6633 27.499 13.5202 27.4398 13.4148 27.3343C13.3093 27.2288 13.25 27.0857 13.25 26.9365V20.749C13.25 18.9588 13.9612 17.2419 15.227 15.976C16.4929 14.7102 18.2098 13.999 20 13.999H20C21.7902 13.999 23.5071 14.7102 24.773 15.9761C26.0388 17.2419 26.75 18.9588 26.75 20.749V20.749C26.75 22.5392 26.0388 24.2561 24.773 25.522C23.5071 26.7879 21.7902 27.499 20 27.499V27.499Z" stroke="#12ADE2" stroke-width="1.5" stroke-linecap="round" stroke-linejoin="round"/>
<path d="M19.6342 27.4992C20.0999 28.8152 20.9622 29.9546 22.1022 30.7604C23.2422 31.5662 24.6039 31.9989 26 31.9989H32.1875C32.3367 31.9989 32.4797 31.9396 32.5852 31.8341C32.6907 31.7286 32.75 31.5856 32.75 31.4364V25.2489C32.7499 23.5225 32.0885 21.8617 30.9016 20.6081C29.7147 19.3544 28.0926 18.6032 26.3688 18.5088" stroke="#12ADE2" stroke-width="1.5" stroke-linecap="round" stroke-linejoin="round"/>
</svg>
