<svg width="46" height="46" viewBox="0 0 46 46" fill="none" xmlns="http://www.w3.org/2000/svg">
<rect width="46" height="46" rx="14" fill="#DCF6FF"/>
<path d="M31.2507 17.75H14.7507C14.3365 17.75 14.0007 18.0858 14.0007 18.5V30.5C14.0007 30.9142 14.3365 31.25 14.7507 31.25H31.2507C31.6649 31.25 32.0007 30.9142 32.0007 30.5V18.5C32.0007 18.0858 31.6649 17.75 31.2507 17.75Z" stroke="#12ADE2" stroke-width="1.5" stroke-linecap="round" stroke-linejoin="round"/>
<path d="M26.75 17.75V16.25C26.75 15.8522 26.592 15.4706 26.3107 15.1893C26.0294 14.908 25.6478 14.75 25.25 14.75H20.75C20.3522 14.75 19.9706 14.908 19.6893 15.1893C19.408 15.4706 19.25 15.8522 19.25 16.25V17.75" stroke="#12ADE2" stroke-width="1.5" stroke-linecap="round" stroke-linejoin="round"/>
<path d="M32.0008 22.8418C29.2654 24.4243 26.1602 25.2553 23 25.2503C19.8404 25.2553 16.7356 24.4246 14.0006 22.8426" stroke="#12ADE2" stroke-width="1.5" stroke-linecap="round" stroke-linejoin="round"/>
<path d="M21.875 22.25H24.125" stroke="#12ADE2" stroke-width="1.5" stroke-linecap="round" stroke-linejoin="round"/>
</svg>
