<svg width="42" height="42" viewBox="0 0 42 42" fill="none" xmlns="http://www.w3.org/2000/svg">
<circle cx="21" cy="21" r="20" stroke="#DEE7F8"/>
<path d="M18.0834 29.0206H13.7084C13.515 29.0206 13.3296 28.9437 13.1928 28.807C13.0561 28.6702 12.9792 28.4848 12.9792 28.2914V24.2184C12.9792 24.1227 12.9981 24.0279 13.0348 23.9394C13.0714 23.8509 13.1251 23.7705 13.1928 23.7028L24.1303 12.7653C24.2671 12.6286 24.4525 12.5518 24.6459 12.5518C24.8393 12.5518 25.0248 12.6286 25.1615 12.7653L29.2345 16.8383C29.3712 16.975 29.4481 17.1605 29.4481 17.3539C29.4481 17.5473 29.3712 17.7327 29.2345 17.8695L18.0834 29.0206Z" stroke="#7D9DFF" stroke-width="1.3" stroke-linecap="round" stroke-linejoin="round"/>
<path d="M21.7292 15.166L26.8334 20.2702" stroke="#7D9DFF" stroke-width="1.3" stroke-linecap="round" stroke-linejoin="round"/>
</svg>
