<svg width="38" height="38" viewBox="0 0 38 38" fill="none" xmlns="http://www.w3.org/2000/svg">
<circle cx="19" cy="19" r="19" fill="url(#paint0_radial)"/>
<path d="M15.8712 9.90158V14.7089C15.8712 14.8903 15.8403 15.0704 15.7795 15.2425L12.1849 25.4156C11.7989 26.5081 12.6609 27.6362 13.8815 27.6362H24.1202C25.3409 27.6362 26.2029 26.5081 25.8168 25.4156L22.2223 15.2425C22.1616 15.0704 22.1305 14.8903 22.1305 14.7089V9.90158M15.8712 9.90158H22.1305M15.8712 9.90158H15.6477C15.2773 9.90158 14.977 9.61832 14.977 9.26891C14.977 8.91949 15.2773 8.63623 15.6477 8.63623H22.3541C22.7245 8.63623 23.0247 8.91949 23.0247 9.26891C23.0247 9.61832 22.7245 9.90158 22.3541 9.90158H22.1305" stroke="white"/>
<defs>
<radialGradient id="paint0_radial" cx="0" cy="0" r="1" gradientUnits="userSpaceOnUse" gradientTransform="translate(4.07143 31.8929) rotate(-38.3675) scale(41.5428 39.0637)">
<stop stop-color="#ABE6D1"/>
<stop offset="1" stop-color="#84CBEC"/>
</radialGradient>
</defs>
</svg>
