<svg width="26" height="27" viewBox="0 0 26 27" fill="none" xmlns="http://www.w3.org/2000/svg">
<path d="M15.4182 10.4455C16.0546 8.35447 17.5108 6.16739 18.8983 5.10343C19.3659 4.7448 19.982 5.04972 20.07 5.63245C20.2369 6.73762 20.2466 8.16154 19.6137 9.64635C19.4338 10.0685 19.825 10.6188 20.2834 10.5956C21.8495 10.5163 23.2303 11.0366 24.2388 11.7196C24.7002 12.0321 24.7123 12.6861 24.2653 13.019C23.0214 13.9457 21.2112 14.5876 18.7099 14.0483C18.0657 13.9094 17.4038 14.3437 17.234 14.9805C15.9589 19.7628 9.5585 24.422 2.31213 22.7198C1.43229 22.5131 0.872996 21.6586 1.06711 20.7759C2.04172 16.3439 5.80477 11.4203 11.6501 10.488" stroke="#4B5B75" stroke-width="1.3" stroke-linecap="round" stroke-linejoin="round"/>
</svg>
