<svg width="26" height="26" viewBox="0 0 26 26" fill="none" xmlns="http://www.w3.org/2000/svg">
<path d="M7.41479 10.5886V19.9999C7.41479 22.209 9.20565 23.9999 11.4148 23.9999H14.5849C16.794 23.9999 18.5849 22.209 18.5849 19.9999V10.697C18.5849 9.36306 17.9199 8.11689 16.8118 7.37424L15.9685 6.80906C15.4144 6.43773 15.0819 5.81464 15.0819 5.14767V2.48145C15.0819 2.2053 14.8581 1.98145 14.5819 1.98145H11.1138C10.8377 1.98145 10.6138 2.2053 10.6138 2.48145V5.20185C10.6138 5.8387 10.3105 6.43747 9.79712 6.81426L9.04823 7.36384C8.02138 8.1174 7.41479 9.31495 7.41479 10.5886Z" stroke="#2C4358" stroke-width="1.3" stroke-linejoin="round"/>
<path d="M7.48853 12.0952H18.4049" stroke="#2C4358" stroke-width="1.3"/>
<path d="M7.48853 18.3247H18.4049" stroke="#2C4358" stroke-width="1.3"/>
</svg>
