<svg width="22" height="22" viewBox="0 0 22 22" fill="none" xmlns="http://www.w3.org/2000/svg">
<path d="M14.8202 14.8193L18.6396 18.6388" stroke="#DE6286" stroke-width="1.8" stroke-linecap="round" stroke-linejoin="round"/>
<path d="M8.48504 1.60948L14.4379 7.56239C14.4379 7.56239 17.0871 6.2378 19.9187 8.52206C20.0023 8.58938 20.0709 8.67353 20.1198 8.76905C20.1688 8.86458 20.1971 8.96934 20.203 9.07652C20.2088 9.18371 20.192 9.29093 20.1537 9.39121C20.1154 9.49148 20.0564 9.58258 19.9806 9.65858L9.67803 19.9612C9.60087 20.0385 9.508 20.0984 9.40571 20.1368C9.30341 20.1752 9.19407 20.1911 9.08508 20.1836C8.97608 20.1761 8.86998 20.1452 8.77393 20.0932C8.67788 20.0411 8.59413 19.969 8.52834 19.8818C7.72692 18.8166 6.46815 16.627 7.56294 14.4374L1.61004 8.48448C1.46678 8.34122 1.3863 8.14693 1.3863 7.94433C1.3863 7.74173 1.46678 7.54744 1.61004 7.40418L7.40474 1.60948C7.548 1.46622 7.74229 1.38574 7.94489 1.38574C8.14749 1.38574 8.34178 1.46622 8.48504 1.60948V1.60948Z" stroke="#DE6286" stroke-width="1.8" stroke-linecap="round" stroke-linejoin="round"/>
</svg>
