<svg width="110" height="111" viewBox="0 0 110 111" fill="none" xmlns="http://www.w3.org/2000/svg">
<rect width="110" height="110" transform="translate(0 0.5)" fill="white"/>
<path d="M11.9678 65.3638H98.0322C97.7898 67.9805 97.3812 71.0905 96.7245 74.4651C93.3313 91.9023 79.5777 108.516 54.3639 108.516C32.0734 108.516 16.6964 92.1969 13.3894 74.4651C12.7684 71.1353 12.3308 68.0338 11.9678 65.3638Z" fill="#C6DDFF"/>
<path d="M96.7245 74.4651C97.3812 71.0905 97.7898 67.9805 98.0322 65.3638H11.9678C12.3308 68.0338 12.7684 71.1353 13.3894 74.4651M96.7245 74.4651C93.3313 91.9023 79.5777 108.516 54.3639 108.516C32.0734 108.516 16.6964 92.1969 13.3894 74.4651M96.7245 74.4651H13.3894" stroke="#333333" stroke-width="1.5" stroke-linecap="square" stroke-linejoin="round"/>
<circle cx="54.9997" cy="17.8773" r="16.15" fill="#FFD78A"/>
<path d="M54.9995 10.1777V25.5772" stroke="white" stroke-width="1.5" stroke-linecap="square" stroke-linejoin="round"/>
<path d="M62.6992 17.8774L47.2997 17.8774" stroke="white" stroke-width="1.5" stroke-linecap="square" stroke-linejoin="round"/>
<path d="M94.3427 65.0249C95.493 53.5225 87.7699 45.4706 77.2533 44.4847C67.2721 43.549 58.962 49.9424 48.004 47.6069C37.9804 45.4705 30.093 44.4847 23.1915 53.5225C16.6186 53.6868 13.1678 59.931 14.6467 65.0249" stroke="#333333" stroke-width="1.5" stroke-linecap="square" stroke-linejoin="round"/>
<path d="M66.9412 51.9925C71.0599 50.1679 77.8929 50.8417 80.0064 56.6317M37.8757 58.1464C36.3609 56.6317 29.5443 56.4423 30.0176 60.7974M50.2783 60.324C50.7516 55.7796 57.8523 55.3062 60.2192 57.4837" stroke="#333333" stroke-width="1.5"/>
</svg>
