<svg width="110" height="111" viewBox="0 0 110 111" fill="none" xmlns="http://www.w3.org/2000/svg">
<rect width="110" height="110" transform="translate(0 0.5)" fill="white"/>
<rect x="8.66162" y="33.3653" width="45.0691" height="76.9868" rx="6.31985" transform="rotate(-15.5766 8.66162 33.3653)" stroke="#333333" stroke-width="1.5" stroke-linejoin="round"/>
<path d="M18.2997 41.6158C17.8548 40.0198 18.788 38.3653 20.384 37.9204L44.1349 31.2994C45.7309 30.8545 47.3854 31.7877 47.8303 33.3837L62.9539 87.6359C63.3988 89.2319 62.4656 90.8863 60.8696 91.3313L37.1187 97.9522C35.5227 98.3971 33.8682 97.4639 33.4233 95.8679L18.2997 41.6158Z" fill="#FFD8D8"/>
<path d="M31.6758 89.5994L61.2063 81.3673L63.0805 88.0906C63.4554 89.4354 62.6691 90.8296 61.3243 91.2045L36.6639 98.0789C35.319 98.4538 33.9249 97.6675 33.55 96.3227L31.6758 89.5994Z" fill="#EC8080"/>
<path d="M18.7154 25.6053C18.3405 24.2605 19.1268 22.8663 20.4717 22.4914L36.3428 18.0671C37.6876 17.6922 39.0818 18.4785 39.4567 19.8234L40.739 24.4235L19.9978 30.2054L18.7154 25.6053Z" stroke="#333333" stroke-width="1.5" stroke-linejoin="round"/>
<path fill-rule="evenodd" clip-rule="evenodd" d="M81.4116 10.1339L93.8792 13.0145C94.6845 13.2005 95.3098 13.835 95.4843 14.6428C95.6587 15.4507 95.3509 16.2866 94.6941 16.7883L85.0082 24.1883L93.0574 26.0481L92.0969 30.2053L79.6294 27.3247C78.8241 27.1387 78.1988 26.5042 78.0243 25.6964C77.8499 24.8885 78.1577 24.0526 78.8145 23.5509L88.5004 16.1509L80.4511 14.2911L81.4116 10.1339Z" fill="#C6DDFF"/>
<path fill-rule="evenodd" clip-rule="evenodd" d="M68.292 36.0504L79.1814 35.1708C80.0052 35.1043 80.7933 35.5195 81.2042 36.2366C81.615 36.9537 81.5748 37.8436 81.1008 38.5207L75.7937 46.1021L82.163 45.5876L82.5065 49.8405L71.6172 50.72C70.7934 50.7865 70.0053 50.3713 69.5944 49.6542C69.1835 48.9371 69.2238 48.0472 69.6977 47.3701L75.0049 39.7888L68.6355 40.3032L68.292 36.0504Z" fill="#C6DDFF"/>
</svg>
