<svg width="110" height="111" viewBox="0 0 110 111" fill="none" xmlns="http://www.w3.org/2000/svg">
<g clip-path="url(#clip0)">
<rect width="110" height="110" transform="translate(0 0.5)" fill="white"/>
<path d="M35.9121 79.5586C35.7537 79.4347 35.6516 79.2524 35.6288 79.0526C35.0006 73.5403 35.0465 69.0508 35.8045 65.6176C36.5669 62.1649 38.5076 58.2535 41.5657 53.8935C41.5697 53.8876 41.5739 53.8819 41.5781 53.8762L49.3697 43.4128C52.5624 38.6769 53.8087 33.9278 53.1813 29.1398C52.5667 24.4496 50.874 21.0483 48.1807 18.8247L48.1759 18.8207C45.4949 16.5691 41.873 15.6896 37.1975 16.3023C32.65 16.8981 29.2312 18.5676 26.8569 21.2533C24.4957 23.924 23.5553 27.2145 24.0779 31.2025C24.1317 31.6132 23.8424 31.9897 23.4317 32.0435L10.6934 33.7127C10.4946 33.7387 10.2936 33.6841 10.1354 33.561C9.97714 33.4378 9.87479 33.2564 9.85119 33.0573C8.94575 25.4163 10.852 18.863 15.5958 13.4655L35.9121 79.5586ZM35.9121 79.5586C36.0705 79.6824 36.2721 79.7375 36.4715 79.7113M35.9121 79.5586L36.4715 79.7113M36.4715 79.7113L49.2097 78.0422C49.6204 77.9884 49.9097 77.6118 49.8559 77.2011C48.9575 70.3451 49.9279 64.9911 52.6422 61.0393L59.1599 52.6365C59.1643 52.6308 59.1686 52.625 59.1728 52.6193M36.4715 79.7113L59.1728 52.6193M59.1728 52.6193C65.6605 43.7401 68.4379 35.1445 67.3527 26.8626C66.2676 18.5815 62.9186 12.3158 57.2476 8.17133C51.6164 3.97459 44.3502 2.5061 35.5409 3.66042C27.0441 4.77382 20.3706 8.02633 15.596 13.4653L59.1728 52.6193ZM39.2485 95.0331L39.2478 95.0342C38.0715 96.7443 37.6479 98.7378 37.9397 100.964C38.2314 103.191 39.1544 105.008 40.7315 106.357C40.7382 106.363 40.7449 106.369 40.7518 106.374C42.4191 107.702 44.6148 108.13 47.2243 107.788C49.8338 107.446 51.8451 106.467 53.114 104.754L53.1141 104.754L53.1215 104.744C54.3479 103.028 54.799 101.028 54.5062 98.7936C54.2138 96.5615 53.264 94.746 51.6398 93.4047C49.963 91.978 47.756 91.4977 45.1347 91.8412C42.5109 92.185 40.5009 93.2193 39.2485 95.0331Z" fill="#C6DDFF" stroke="#333333" stroke-width="1.5" stroke-linejoin="round"/>
<path d="M81.4767 74.7668L74.1679 73.1599L83.6535 27.3L92.144 29.1666L81.4767 74.7668ZM70.2329 86.8849C70.5215 85.572 71.1559 84.5644 72.1362 83.8623C73.152 83.1374 74.4476 82.9482 76.0232 83.2945C77.5987 83.6409 78.6956 84.3562 79.3137 85.4403C79.9382 86.4952 80.1061 87.6791 79.8175 88.9921C79.5288 90.305 78.8798 91.3094 77.8704 92.0051C76.8675 92.6716 75.5782 92.8317 74.0026 92.4853C72.4271 92.1389 71.3238 91.4528 70.6929 90.4271C70.0976 89.3786 69.9442 88.1979 70.2329 86.8849Z" fill="#C6DDFF"/>
</g>
<defs>
<clipPath id="clip0">
<rect width="110" height="110" fill="white" transform="translate(0 0.5)"/>
</clipPath>
</defs>
</svg>
