<svg width="110" height="111" viewBox="0 0 110 111" fill="none" xmlns="http://www.w3.org/2000/svg">
<g clip-path="url(#clip0)">
<rect width="110" height="110" transform="translate(0 0.5)" fill="white"/>
<path d="M93.6006 64.5923L87.1335 68.8606L94.0439 79.3312C98.9061 86.6983 98.7115 92.6059 91.8296 97.1478L96.7755 104.641C107.229 97.7423 108.273 86.8242 100.888 75.6337L93.6006 64.5923Z" fill="#FFC3C3" stroke="#333333" stroke-width="1.5" stroke-linejoin="round"/>
<path d="M61.1997 85.9767L67.6668 81.7085L74.5773 92.1791C79.4395 99.5462 84.9479 101.69 91.8297 97.1479L96.7754 104.642C86.3219 111.541 75.8725 108.209 68.4868 97.018L61.1997 85.9767Z" fill="#EC8080" stroke="#333333" stroke-width="1.5" stroke-linejoin="round"/>
<path d="M45.0397 66.3129C47.7949 65.2419 51.0361 65.2247 54.0503 66.2653C54.0503 66.2653 51.7569 68.8181 51.6197 71.9479C51.4825 75.0777 50.3091 77.1022 48.6588 79.8719C47.0085 82.6416 47.3979 85.535 47.3979 85.535C44.3837 84.4944 41.8434 82.4813 40.3358 79.9386C39.7523 78.9545 39.342 77.9222 39.1094 76.8784L42.1866 67.9648C43.0136 67.2868 43.9734 66.7275 45.0397 66.3129Z" fill="#E59449"/>
<path d="M17.4016 56.9769C15.894 54.4342 13.3537 52.4211 10.3395 51.3806C10.3395 51.3806 10.5696 54.8045 8.74671 57.3524C6.92381 59.9002 6.59831 62.2174 6.18841 65.4153C5.77852 68.6132 3.68708 70.6502 3.68708 70.6502C6.70128 71.6908 9.94248 71.6736 12.6976 70.6026C13.764 70.188 14.7237 69.6287 15.5508 68.9507L18.628 60.0372C18.3954 58.9933 17.9851 57.961 17.4016 56.9769Z" fill="#E59449"/>
<path d="M41.2905 63.5516C43.0682 68.1323 42.1364 73.097 39.2746 76.6773C38.6111 77.5073 37.844 78.2629 36.9828 78.9221C36.0062 79.6696 34.9086 80.2931 33.7044 80.7605C31.4382 81.64 29.0781 81.8563 26.8381 81.5039C22.3102 80.7915 18.2733 77.7552 16.4955 73.1744C14.7177 68.5936 15.6495 63.6289 18.5114 60.0486C19.9272 58.2774 21.8154 56.845 24.0816 55.9655C26.3477 55.086 28.7079 54.8697 30.9479 55.2221C35.4757 55.9345 39.5127 58.9708 41.2905 63.5516Z" fill="#F4BF59"/>
<path d="M38.4759 29.016C40.8724 29.3768 43.1851 30.6855 44.9054 32.6542C44.9054 32.6542 42.2335 33.5356 40.8604 35.7062C39.4873 37.8769 37.8276 38.8389 35.5248 40.1367C33.222 41.4346 32.3199 43.6516 32.3199 43.6516C30.5996 41.6829 29.6128 39.2156 29.5766 36.7923C29.5625 35.8544 29.6913 34.9529 29.9513 34.1154L35.7729 29.0284C36.6376 28.8831 37.5483 28.8763 38.4759 29.016Z" fill="#E59449"/>
<path d="M22.6188 11.1113C22.5825 8.68802 21.5957 6.22067 19.8755 4.25201C19.8755 4.25201 18.6438 6.7816 16.3087 7.85127C13.9735 8.92094 12.7976 10.4367 11.2028 12.5447C9.60794 14.6527 7.28997 15.2494 7.28997 15.2494C9.01022 17.2181 11.323 18.5268 13.7195 18.8876C14.6471 19.0273 15.5577 19.0205 16.4224 18.8752L22.2441 13.7882C22.504 12.9507 22.6328 12.0492 22.6188 11.1113Z" fill="#E59449"/>
<path d="M36.9338 25.5237C36.3317 29.5069 33.6455 32.6591 30.1505 34.0398C28.4214 34.7229 26.4944 34.9724 24.5238 34.6746C22.5533 34.3767 20.7861 33.5688 19.3362 32.4052C16.4054 30.0532 14.7709 26.2479 15.3729 22.2647C15.975 18.2814 18.6612 15.1292 22.1562 13.7485C23.8852 13.0654 25.8123 12.8159 27.7828 13.1138C29.7534 13.4116 31.5206 14.2195 32.9705 15.3831C35.9013 17.7351 37.5358 21.5404 36.9338 25.5237Z" fill="#F4BF59"/>
<path d="M78.5184 45.0773C80.7438 46.7064 82.3844 49.2468 83.0791 52.1397C83.0791 52.1397 79.9203 51.6175 77.39 53.0808C74.8597 54.5441 72.6785 54.6376 69.6719 54.7301C66.6652 54.8226 64.5852 56.5813 64.5852 56.5813C63.8905 53.6885 64.1984 50.6801 65.4412 48.218C65.9223 47.2651 66.5281 46.4243 67.2323 45.7173L75.787 43.6627C76.7354 43.9728 77.6571 44.4468 78.5184 45.0773Z" fill="#E59449"/>
<path d="M71.9858 18.6554C73.2287 16.1934 73.5366 13.185 72.8418 10.2921C72.8418 10.2921 70.2646 12.1919 67.3457 12.0373C64.4269 11.8828 62.4412 12.79 59.7205 14.073C56.9997 15.356 54.3479 14.7337 54.3479 14.7337C55.0427 17.6266 56.6832 20.167 58.9086 21.7961C59.7699 22.4266 60.6916 22.9006 61.64 23.2107L70.1947 21.1562C70.8989 20.4492 71.5048 19.6083 71.9858 18.6554Z" fill="#E59449"/>
<path d="M78.8077 40.7425C76.0977 44.4402 71.7255 46.1996 67.4731 45.7463C65.3694 45.522 63.295 44.7561 61.4657 43.4154C59.6365 42.0747 58.2815 40.3272 57.4342 38.3886C55.7215 34.4701 56.0828 29.7711 58.7929 26.0734C61.5029 22.3757 65.8751 20.6163 70.1275 21.0697C72.2312 21.294 74.3056 22.0598 76.1349 23.4005C77.9642 24.7412 79.3191 26.4887 80.1664 28.4273C81.8791 32.3458 81.5178 37.0449 78.8077 40.7425Z" fill="#F4BF59"/>
</g>
<defs>
<clipPath id="clip0">
<rect width="110" height="110" fill="white" transform="translate(0 0.5)"/>
</clipPath>
</defs>
</svg>
