<svg width="110" height="111" viewBox="0 0 110 111" fill="none" xmlns="http://www.w3.org/2000/svg">
<rect width="110" height="110" transform="translate(0 0.5)" fill="white"/>
<path d="M93.0815 18.6131L35.9952 6.0059C27.9059 4.21942 19.8999 9.32887 18.1134 17.4182L5.50623 74.5045C3.71974 82.5939 8.82922 90.5998 16.9186 92.3863L51.7312 100.074L74.0048 104.993C82.0942 106.78 90.1001 101.671 91.8866 93.5812L104.494 36.4949C106.28 28.4055 101.171 20.3996 93.0815 18.6131Z" fill="#E3EEFF" stroke="#333333" stroke-width="1.5" stroke-linejoin="round"/>
<path d="M79.9106 47.7066C81.2057 41.8423 80.1182 35.7036 76.8872 30.6411C73.6563 25.5786 68.5466 22.007 62.6823 20.7119C56.818 19.4168 50.6793 20.5043 45.6169 23.7352C40.5544 26.9662 36.9827 32.0758 35.6876 37.9402L57.7991 42.8234L79.9106 47.7066Z" fill="white" stroke="#333333" stroke-width="1.5" stroke-linejoin="round"/>
<path d="M65.0502 43.2502C65.4606 41.392 65.116 39.4469 64.0922 37.8428C63.0685 36.2387 61.4494 35.107 59.5912 34.6966C57.7331 34.2862 55.788 34.6308 54.1839 35.6546C52.5798 36.6783 51.448 38.2974 51.0377 40.1556L58.0439 41.7029L65.0502 43.2502Z" fill="#F4BF59"/>
<path d="M58.6986 42.4594L70.3641 32.1124" stroke="#333333" stroke-width="1.5" stroke-linecap="square" stroke-linejoin="round"/>
<path d="M62.6826 20.7117L61.8148 24.641" stroke="#333333" stroke-width="1.5" stroke-linecap="square" stroke-linejoin="round"/>
<path d="M41.4712 29.2474L44.4402 31.9636" stroke="#333333" stroke-width="1.5" stroke-linecap="square" stroke-linejoin="round"/>
<path d="M79.4912 37.514L75.6624 38.7521" stroke="#333333" stroke-width="1.5" stroke-linecap="square" stroke-linejoin="round"/>
<path d="M73.2129 75.2828C75.3846 69.2895 76.307 60.3106 71.9143 58.0044C66.2617 55.0366 63.2205 61.7384 61.7445 71.1271C59.6154 84.6706 51.7969 87.0906 54.6127 90.8087C59.8307 97.6987 70.4908 82.7953 73.2129 75.2828Z" fill="#C6DDFF"/>
<path d="M30.3602 68.5281C30.2406 61.1671 33.2125 50.9766 39.1122 50.8808C45.0118 50.7849 44.8064 59.2292 42.0928 68.3375C39.1818 78.1088 43.0544 86.6647 40.5901 87.9386C32.9124 91.9077 30.4899 76.5176 30.3602 68.5281Z" fill="#C6DDFF"/>
</svg>
