<svg width="110" height="111" viewBox="0 0 110 111" fill="none" xmlns="http://www.w3.org/2000/svg">
<rect width="110" height="110" transform="translate(0 0.5)" fill="white"/>
<path d="M48.1221 2.17865L107.047 20.6756" stroke="#333333" stroke-width="1.5" stroke-linecap="round"/>
<rect x="17.4541" y="34.2343" width="7.97191" height="25.7609" transform="rotate(-6.75483 17.4541 34.2343)" fill="#EC8080"/>
<rect x="35.2495" y="41.0833" width="7.97191" height="25.7609" transform="rotate(83.2452 35.2495 41.0833)" fill="#EC8080"/>
<path d="M55.3218 4.43799L99.8476 18.4149L96.9197 27.7421C92.8569 40.6851 82.7405 50.4201 70.3308 54.3006C67.9396 55.0484 66.9299 58.2648 68.4649 60.245C76.4305 70.5216 79.1685 84.2916 75.1057 97.2345L72.1778 106.562L27.6519 92.5848L30.5798 83.2576C34.6427 70.3146 44.759 60.5797 57.1687 56.6991C59.56 55.9513 60.5696 52.735 59.0347 50.7547C51.069 40.4782 48.331 26.7082 52.3939 13.7652L55.3218 4.43799Z" fill="#FFF2CF" stroke="#333333" stroke-width="1.50534" stroke-linejoin="round"/>
<path d="M20.4521 90.325L79.3771 108.822" stroke="#333333" stroke-width="1.5" stroke-linecap="round"/>
<path d="M69.9036 102.997L31.4336 90.8531C33.2812 83.7089 33.9104 82.8051 36.3384 80.8992C38.9607 78.8408 43.2596 79.0284 51.389 79.8906C59.5185 80.7528 72.3748 71.0453 73.6065 80.8992C74.6999 89.6466 71.5049 98.6041 69.9036 102.997Z" fill="#F4BF59"/>
<path d="M67.2943 51.021C61.0812 51.1653 57.1742 41.8135 55.1514 36.4674C73.5017 41.2357 84.169 31.3492 89.8042 35.2505C84.169 44.6424 73.5073 50.8766 67.2943 51.021Z" fill="#F4BF59"/>
<path d="M65.6161 65.2962C65.6161 66.9209 64.299 68.2381 62.6743 68.2381C61.0495 68.2381 59.7324 66.9209 59.7324 65.2962C59.7324 62.0349 62.6743 58.8966 62.6743 58.8966C62.6743 58.8966 65.6161 62.0349 65.6161 65.2962Z" fill="#F4BF59"/>
</svg>
