<svg width="110" height="111" viewBox="0 0 110 111" fill="none" xmlns="http://www.w3.org/2000/svg">
<g clip-path="url(#clip0)">
<rect width="110" height="110" transform="translate(0 0.5)" fill="white"/>
<path fill-rule="evenodd" clip-rule="evenodd" d="M37.2021 7.44916L27.5248 4.89497L21.324 23.4219L32.3066 26.3206L35.8778 24.3705L35.9204 24.2093C40.303 27.2865 41.1566 31.2826 39.4738 40.1185L51.0828 43.1825C55.2506 27.3912 73.2698 28.5124 78.7399 43.1952L80.5401 38.5596C84.212 29.1038 78.8392 18.5572 69.0313 15.9686L43.3444 9.18894L39.1926 11.8112L39.1739 11.8824L37.2021 7.44916Z" fill="#E3EEFF"/>
<path d="M27.5248 4.89497L27.7162 4.1698C27.3339 4.06892 26.939 4.28205 26.8135 4.65694L27.5248 4.89497ZM37.2021 7.44916L37.8874 7.14437C37.795 6.93663 37.6134 6.78201 37.3935 6.72399L37.2021 7.44916ZM21.324 23.4219L20.6128 23.1839C20.547 23.3805 20.5655 23.5957 20.664 23.7781C20.7625 23.9606 20.9322 24.0942 21.1327 24.1471L21.324 23.4219ZM32.3066 26.3206L32.1153 27.0458C32.3007 27.0947 32.4978 27.0708 32.6661 26.9789L32.3066 26.3206ZM35.8778 24.3705L36.2373 25.0288C36.4182 24.93 36.5504 24.7612 36.603 24.5619L35.8778 24.3705ZM35.9204 24.2093L36.3514 23.5955C36.1506 23.4545 35.8935 23.4206 35.663 23.5048C35.4325 23.589 35.2578 23.7806 35.1952 24.0179L35.9204 24.2093ZM39.4738 40.1185L38.7371 39.9782C38.6634 40.3652 38.9016 40.7432 39.2824 40.8437L39.4738 40.1185ZM51.0828 43.1825L50.8914 43.9077C51.2919 44.0134 51.7022 43.7744 51.8079 43.3739L51.0828 43.1825ZM78.7399 43.1952L78.0371 43.457C78.1458 43.7487 78.4235 43.943 78.7348 43.9451C79.0461 43.9473 79.3264 43.7569 79.4391 43.4667L78.7399 43.1952ZM80.5401 38.5596L79.8409 38.2881L80.5401 38.5596ZM43.3444 9.18894L43.5358 8.46377C43.3344 8.41062 43.12 8.44361 42.9439 8.55483L43.3444 9.18894ZM39.1926 11.8112L38.7921 11.1771C38.6318 11.2783 38.5158 11.4365 38.4675 11.6198L39.1926 11.8112ZM39.1739 11.8824L38.4886 12.1872C38.6179 12.478 38.9167 12.6555 39.234 12.63C39.5512 12.6045 39.8178 12.3815 39.899 12.0738L39.1739 11.8824ZM27.3334 5.62014L37.0107 8.17432L37.3935 6.72399L27.7162 4.1698L27.3334 5.62014ZM22.0353 23.66L28.236 5.13301L26.8135 4.65694L20.6128 23.1839L22.0353 23.66ZM32.498 25.5955L21.5154 22.6968L21.1327 24.1471L32.1153 27.0458L32.498 25.5955ZM35.5184 23.7123L31.9472 25.6624L32.6661 26.9789L36.2373 25.0288L35.5184 23.7123ZM35.1952 24.0179L35.1527 24.1791L36.603 24.5619L36.6456 24.4007L35.1952 24.0179ZM40.2106 40.2589C41.056 35.8198 41.2893 32.4862 40.7039 29.8423C40.1062 27.1426 38.6703 25.2237 36.3514 23.5955L35.4894 24.8231C37.5531 26.2721 38.7353 27.8898 39.2394 30.1665C39.7558 32.4989 39.5745 35.5813 38.7371 39.9782L40.2106 40.2589ZM51.2742 42.4574L39.6652 39.3934L39.2824 40.8437L50.8914 43.9077L51.2742 42.4574ZM79.4428 42.9333C76.6144 35.3415 70.4948 31.1616 64.4416 31.0113C58.3471 30.86 52.5202 34.7973 50.3576 42.9911L51.8079 43.3739C53.8132 35.7764 59.0798 32.3787 64.4044 32.5108C69.7703 32.644 75.3954 36.3661 78.0371 43.457L79.4428 42.9333ZM79.8409 38.2881L78.0408 42.9237L79.4391 43.4667L81.2392 38.8311L79.8409 38.2881ZM68.8399 16.6938C78.2151 19.1682 83.3509 29.2495 79.8409 38.2881L81.2392 38.8311C85.0732 28.9581 79.4633 17.9463 69.2227 15.2434L68.8399 16.6938ZM43.153 9.91411L68.8399 16.6938L69.2227 15.2434L43.5358 8.46377L43.153 9.91411ZM39.5931 12.4453L43.7449 9.82305L42.9439 8.55483L38.7921 11.1771L39.5931 12.4453ZM39.899 12.0738L39.9178 12.0026L38.4675 11.6198L38.4487 11.691L39.899 12.0738ZM36.5168 7.75394L38.4886 12.1872L39.8591 11.5776L37.8874 7.14437L36.5168 7.75394Z" fill="#333333"/>
<path d="M51.082 43.1823L37.4988 99.3414C36.5537 103.249 32.5829 105.617 28.6961 104.591C24.8094 103.565 22.5243 99.5457 23.6305 95.6811L39.5306 40.1335L51.082 43.1823Z" fill="#C6DDFF" stroke="#333333" stroke-width="1.5" stroke-linejoin="round"/>
<path d="M74.3403 64.4381C73.9174 63.6266 72.9977 63.2056 72.1071 63.4158L62.3354 65.7228C61.4448 65.9331 60.8105 66.721 60.7952 67.6359L60.765 69.4444L75.1761 66.0421L74.3403 64.4381Z" fill="#5F7DE9"/>
<path d="M69.5781 67.3633L66.3626 68.1224L69.5687 81.7026L71.9918 84.7763L72.7843 80.9434L69.5781 67.3633Z" fill="#5F7DE9"/>
<path d="M83.4996 79.7373C84.1293 79.0733 85.1293 78.9215 85.9278 79.3686L94.6883 84.2738C95.4867 84.7209 95.8799 85.6528 95.643 86.5367L95.1747 88.2838L82.2549 81.0496L83.4996 79.7373Z" fill="#5F7DE9"/>
<path d="M87.2734 83.8594L90.1562 85.4735L83.3392 97.6484L80.1643 99.9373L80.4564 96.0342L87.2734 83.8594Z" fill="#5F7DE9"/>
</g>
<defs>
<clipPath id="clip0">
<rect width="110" height="110" fill="white" transform="translate(0 0.5)"/>
</clipPath>
</defs>
</svg>
