<svg width="18" height="20" viewBox="0 0 18 20" fill="none" xmlns="http://www.w3.org/2000/svg">
<path fill-rule="evenodd" clip-rule="evenodd" d="M8.99845 1C5.39141 1 2.87731 3.48076 2.87731 5.70693C2.87731 7.59061 2.28182 9.46132 1.75547 10.2296C1.33335 10.8467 1 11.3341 1 12.3933C1.17235 14.1021 2.45727 15 8.99845 15C15.5035 15 16.8287 14.0622 17 12.3344C16.9969 11.3341 16.6635 10.8467 16.2414 10.2296C15.7151 9.46132 15.1196 7.59061 15.1196 5.70693C15.1196 3.48076 12.6055 1 8.99845 1Z" stroke="#4B5B75" stroke-width="1.8"/>
<path d="M6.5 17.5C7.72475 19.3371 10.1743 19.3371 11.399 17.5" stroke="#4B5B75" stroke-width="1.8" stroke-linecap="round" stroke-linejoin="round"/>
</svg>
