<svg width="22" height="22" viewBox="0 0 22 22" fill="none" xmlns="http://www.w3.org/2000/svg">
<path d="M14.4375 14.4375L17.875 17.875" stroke="#4B5B75" stroke-width="1.8" stroke-linecap="round" stroke-linejoin="round"/>
<path d="M8.73617 2.54902L14.0938 7.90664C14.0938 7.90664 16.478 6.71451 19.0265 8.77034C19.1017 8.83093 19.1634 8.90666 19.2075 8.99264C19.2516 9.07861 19.2771 9.17289 19.2823 9.26936C19.2876 9.36583 19.2725 9.46232 19.238 9.55257C19.2035 9.64282 19.1504 9.72481 19.0822 9.79321L9.80986 19.0656C9.74041 19.1352 9.65683 19.1891 9.56477 19.2236C9.4727 19.2581 9.3743 19.2725 9.2762 19.2657C9.17811 19.2589 9.08261 19.2312 8.99617 19.1843C8.90973 19.1375 8.83435 19.0726 8.77514 18.9941C8.05386 18.0354 6.92097 16.0648 7.90628 14.0941L2.54867 8.73652C2.41974 8.60759 2.34731 8.43272 2.34731 8.25039C2.34731 8.06805 2.41974 7.89318 2.54867 7.76425L7.7639 2.54902C7.89283 2.42009 8.0677 2.34766 8.25003 2.34766C8.43237 2.34766 8.60724 2.42009 8.73617 2.54902V2.54902Z" stroke="#4B5B75" stroke-width="1.8" stroke-linecap="round" stroke-linejoin="round"/>
</svg>
