<svg width="20" height="18" viewBox="0 0 20 18" fill="none" xmlns="http://www.w3.org/2000/svg">
<path d="M10.4194 15.2222C15.1583 15.2222 19 12.0385 19 8.11111C19 4.18375 15.1583 1 10.4194 1C5.6804 1 1.83871 4.18375 1.83871 8.11111C1.83871 9.45173 2.28635 11.189 3.06452 12.2593C3.36813 12.6768 3.67742 12.8519 3.06452 14.037C2.87554 14.4025 2.51175 14.8242 2.09892 15.2329C1.77108 15.5574 2.15522 16.2423 2.59038 16.0893L6.58886 14.6834C6.68702 14.6489 6.79482 14.6546 6.89024 14.6961C8.05276 15.2017 8.96663 15.2222 10.4194 15.2222Z" stroke="#4B5B75" stroke-width="1.8"/>
</svg>
