<svg width="23" height="22" viewBox="0 0 23 22" fill="none" xmlns="http://www.w3.org/2000/svg">
<path d="M12.3725 16.0855C12.1187 16.3393 12.1187 16.7509 12.3725 17.0047C12.6263 17.2585 13.0379 17.2585 13.2917 17.0047L12.3725 16.0855ZM6.77364 15.4801C6.51979 15.2262 6.10824 15.2262 5.8544 15.4801C5.60056 15.7339 5.60056 16.1455 5.8544 16.3993L6.77364 15.4801ZM20.5886 4.54594L20.129 5.00556L20.5886 4.54594ZM18.1328 2.09007L18.5924 1.63045L18.1328 2.09007ZM3.47917 12.501L3.01955 12.0414L3.47917 12.501ZM8.25571 20.1085L8.14379 19.4682L8.25571 20.1085ZM8.79064 18.4163L8.33102 18.8759L8.79064 18.4163ZM0.856769 19.9482L1.48259 20.1238L0.856769 19.9482ZM1.99176 21.2034L1.87983 20.5631L1.99176 21.2034ZM1.48259 20.1238L3.08222 14.4242L1.83058 14.0729L0.230949 19.7725L1.48259 20.1238ZM3.93879 12.9606L14.3497 2.54969L13.4305 1.63045L3.01955 12.0414L3.93879 12.9606ZM17.6731 2.54969L20.129 5.00556L21.0482 4.08632L18.5924 1.63045L17.6731 2.54969ZM20.129 8.32896L12.3725 16.0855L13.2917 17.0047L21.0482 9.2482L20.129 8.32896ZM2.10368 21.8437L8.36764 20.7488L8.14379 19.4682L1.87983 20.5631L2.10368 21.8437ZM9.25026 17.9567L6.77364 15.4801L5.8544 16.3993L8.33102 18.8759L9.25026 17.9567ZM20.129 5.00556C21.0467 5.92329 21.0467 7.41123 20.129 8.32896L21.0482 9.2482C22.4737 7.82279 22.4737 5.51173 21.0482 4.08632L20.129 5.00556ZM14.3497 2.54969C15.2675 1.63196 16.7554 1.63196 17.6731 2.54969L18.5924 1.63045C17.167 0.205037 14.8559 0.205039 13.4305 1.63045L14.3497 2.54969ZM3.08222 14.4242C3.2375 13.871 3.53247 13.367 3.93879 12.9606L3.01955 12.0414C2.45556 12.6054 2.04611 13.305 1.83058 14.0729L3.08222 14.4242ZM8.36764 20.7488C9.68379 20.5187 10.195 18.9015 9.25026 17.9567L8.33102 18.8759C8.53142 19.0764 8.42298 19.4194 8.14379 19.4682L8.36764 20.7488ZM0.230949 19.7725C-0.0971947 20.9417 0.907447 22.0528 2.10368 21.8437L1.87983 20.5631C1.62609 20.6075 1.41298 20.3718 1.48259 20.1238L0.230949 19.7725Z" fill="#919EAB"/>
</svg>
