<svg width="22" height="22" viewBox="0 0 22 22" fill="none" xmlns="http://www.w3.org/2000/svg">
<g clip-path="url(#clip0)">
<path d="M15.1066 9.97779C14.6169 10.5123 14.8562 11.4139 15.5804 11.6057C18.9305 12.4928 21.399 15.5459 21.399 19.1739C21.399 20.3757 20.4248 21.35 19.2229 21.35H2.77706C1.57521 21.35 0.600928 20.3757 0.600928 19.1739C0.600928 15.5459 3.06946 12.4928 6.4196 11.6057C7.14372 11.4139 7.38303 10.5123 6.89336 9.97779C5.98536 8.98667 5.43213 7.66761 5.43213 6.21786C5.43213 3.14281 7.92495 0.65 11 0.65C14.075 0.65 16.5678 3.14281 16.5678 6.21786C16.5678 7.66762 16.0146 8.98667 15.1066 9.97779Z" stroke="#919EAB" stroke-width="1.3"/>
</g>
<defs>
<clipPath id="clip0">
<rect width="22" height="22" fill="white"/>
</clipPath>
</defs>
</svg>
