<svg width="23" height="21" viewBox="0 0 23 21" fill="none" xmlns="http://www.w3.org/2000/svg">
<path d="M11.5126 18.6049C17.3047 18.6049 22.0001 14.7136 22.0001 9.91353C22.0001 5.11342 17.3047 1.22217 11.5126 1.22217C5.72054 1.22217 1.02514 5.11342 1.02514 9.91353C1.02514 11.5521 1.57226 13.6754 2.52335 14.9835C2.89443 15.4939 3.27246 15.7078 2.52335 17.1563C2.2266 17.7302 1.57717 18.4177 0.901063 19.0387C0.56136 19.3508 0.933056 20.02 1.36821 19.867L6.8649 17.9344C6.96306 17.8999 7.07072 17.9054 7.16597 17.9473C8.60273 18.5794 9.72322 18.6049 11.5126 18.6049Z" stroke="#919EAB" stroke-width="1.3"/>
</svg>
