<svg width="18" height="18" viewBox="0 0 18 18" fill="none" xmlns="http://www.w3.org/2000/svg">
<path d="M2.62897 3.34416L6.74963 15.2483C6.78844 15.3604 6.86168 15.4574 6.95891 15.5253C7.05613 15.5933 7.17235 15.6288 7.29096 15.6267C7.40956 15.6247 7.52448 15.5852 7.61929 15.5139C7.71409 15.4426 7.78393 15.3431 7.81881 15.2297L9.47507 9.8469C9.50205 9.75921 9.55007 9.67946 9.61494 9.61458C9.67982 9.5497 9.75958 9.50168 9.84727 9.4747L15.2301 7.81845C15.3435 7.78356 15.4429 7.71373 15.5142 7.61892C15.5855 7.52412 15.625 7.4092 15.6271 7.2906C15.6291 7.17199 15.5937 7.05577 15.5257 6.95854C15.4577 6.86132 15.3608 6.78807 15.2487 6.74927L3.34452 2.6286C3.24477 2.59407 3.13731 2.58831 3.03444 2.61197C2.93156 2.63563 2.83742 2.68777 2.76277 2.76241C2.68813 2.83705 2.636 2.93119 2.61234 3.03407C2.58867 3.13694 2.59444 3.2444 2.62897 3.34416V3.34416Z" stroke="#7D9DFF" stroke-width="1.5" stroke-linecap="round" stroke-linejoin="round"/>
</svg>
