<svg width="25" height="24" viewBox="0 0 25 24" fill="none" xmlns="http://www.w3.org/2000/svg">
<path d="M15.4995 7.5L7.68934 15.4398C7.40804 15.7211 7.25 16.1026 7.25 16.5005C7.25 16.8983 7.40804 17.2798 7.68934 17.5611C7.97064 17.8424 8.35218 18.0005 8.75 18.0005C9.14783 18.0005 9.52936 17.8424 9.81066 17.5611L19.1208 8.12132C19.3993 7.84274 19.6203 7.51203 19.7711 7.14805C19.9219 6.78407 19.9995 6.39397 19.9995 6C19.9995 5.60603 19.9219 5.21593 19.7711 4.85195C19.6203 4.48797 19.3993 4.15726 19.1208 3.87868C18.8422 3.6001 18.5115 3.37913 18.1475 3.22836C17.7835 3.0776 17.3934 3 16.9995 3C16.6055 3 16.2154 3.0776 15.8514 3.22836C15.4874 3.37913 15.1567 3.6001 14.8781 3.87868L5.56802 13.3185C4.72411 14.1624 4.25 15.307 4.25 16.5005C4.25 17.6939 4.72411 18.8385 5.56802 19.6824C6.41193 20.5264 7.55653 21.0005 8.75 21.0005C9.94348 21.0005 11.0881 20.5264 11.932 19.6824L19.6245 12" stroke="#262626" stroke-width="1.5" stroke-linecap="round" stroke-linejoin="round"/>
</svg>
