<svg width="20" height="19" viewBox="0 0 20 19" fill="none" xmlns="http://www.w3.org/2000/svg">
<path d="M10.9687 13.5067C10.6758 13.7996 10.6758 14.2745 10.9687 14.5674C11.2616 14.8603 11.7365 14.8603 12.0294 14.5674L10.9687 13.5067ZM6.69635 13.0114C6.40346 12.7185 5.92859 12.7185 5.63569 13.0114C5.3428 13.3043 5.3428 13.7792 5.63569 14.0721L6.69635 13.0114ZM17.4595 3.83389L16.9292 4.36422L17.4595 3.83389ZM17.4596 8.07653L16.9292 7.5462L17.4596 8.07653ZM16.2216 2.59593L15.6913 3.12626L16.2216 2.59593ZM2.95838 12.3413L2.23628 12.1386L2.95838 12.3413ZM3.98115 10.5937L3.45082 10.0634L3.98115 10.5937ZM7.41001 17.0128L7.28087 16.274L7.41001 17.0128ZM2.914 17.7987L2.78486 17.0599L2.914 17.7987ZM2.50111 16.7461L3.68048 12.544L2.23628 12.1386L1.05691 16.3408L2.50111 16.7461ZM4.51148 11.1241L12.5093 3.12626L11.4486 2.0656L3.45082 10.0634L4.51148 11.1241ZM15.6913 3.12626L16.9292 4.36422L17.9899 3.30356L16.7519 2.0656L15.6913 3.12626ZM16.9292 7.5462L10.9687 13.5067L12.0294 14.5674L17.9899 8.60686L16.9292 7.5462ZM3.04314 18.5375L7.53915 17.7516L7.28087 16.274L2.78486 17.0599L3.04314 18.5375ZM8.47526 14.7903L6.69635 13.0114L5.63569 14.0721L7.4146 15.851L8.47526 14.7903ZM16.9292 4.36422C17.8079 5.2429 17.8079 6.66752 16.9292 7.5462L17.9899 8.60686C19.4543 7.14239 19.4543 4.76802 17.9899 3.30356L16.9292 4.36422ZM12.5093 3.12626C13.388 2.24758 14.8126 2.24758 15.6913 3.12626L16.7519 2.0656C15.2875 0.601132 12.9131 0.601137 11.4486 2.0656L12.5093 3.12626ZM3.68048 12.544C3.83112 12.0072 4.11729 11.5183 4.51148 11.1241L3.45082 10.0634C2.87469 10.6395 2.45645 11.3542 2.23628 12.1386L3.68048 12.544ZM7.53915 17.7516C8.93507 17.5076 9.47729 15.7924 8.47526 14.7903L7.4146 15.851C7.55775 15.9941 7.48029 16.2392 7.28087 16.274L7.53915 17.7516ZM1.05691 16.3408C0.708879 17.5808 1.77441 18.7593 3.04314 18.5375L2.78486 17.0599C2.60361 17.0916 2.45139 16.9233 2.50111 16.7461L1.05691 16.3408Z" fill="#7D9DFF"/>
</svg>
