<svg width="30" height="30" viewBox="0 0 30 30" fill="none" xmlns="http://www.w3.org/2000/svg">
<path d="M19.5834 19.5835L24.1667 24.1668" stroke="#DE6286" stroke-width="1.8" stroke-linecap="round" stroke-linejoin="round"/>
<path d="M11.9818 3.73186L19.1253 10.8754C19.1253 10.8754 22.3043 9.28585 25.7022 12.027C25.8026 12.1077 25.8848 12.2087 25.9436 12.3234C26.0023 12.438 26.0363 12.5637 26.0433 12.6923C26.0503 12.8209 26.0302 12.9496 25.9842 13.0699C25.9383 13.1903 25.8675 13.2996 25.7765 13.3908L13.4134 25.7539C13.3208 25.8467 13.2094 25.9186 13.0866 25.9646C12.9638 26.0107 12.8326 26.0298 12.7018 26.0208C12.5711 26.0118 12.4437 25.9748 12.3285 25.9123C12.2132 25.8498 12.1127 25.7633 12.0338 25.6586C11.0721 24.3804 9.56154 21.7529 10.8753 19.1254L3.7318 11.9819C3.5599 11.81 3.46332 11.5768 3.46332 11.3337C3.46332 11.0906 3.5599 10.8574 3.7318 10.6855L10.6854 3.73186C10.8574 3.55996 11.0905 3.46338 11.3336 3.46338C11.5767 3.46338 11.8099 3.55996 11.9818 3.73186V3.73186Z" stroke="#DE6286" stroke-width="1.8" stroke-linecap="round" stroke-linejoin="round"/>
</svg>
