<svg width="22" height="22" viewBox="0 0 22 22" fill="none" xmlns="http://www.w3.org/2000/svg">
<path d="M11 19.25C15.5563 19.25 19.25 15.5563 19.25 11C19.25 6.44365 15.5563 2.75 11 2.75C6.44365 2.75 2.75 6.44365 2.75 11C2.75 15.5563 6.44365 19.25 11 19.25Z" fill="#4B5B75"/>
<path d="M11 16.5C11.5695 16.5 12.0312 16.0383 12.0312 15.4688C12.0312 14.8992 11.5695 14.4375 11 14.4375C10.4305 14.4375 9.96875 14.8992 9.96875 15.4688C9.96875 16.0383 10.4305 16.5 11 16.5Z" fill="white"/>
<path d="M11 12.3755V11.688C11.4759 11.688 11.9411 11.5469 12.3368 11.2825C12.7325 11.0181 13.041 10.6423 13.2231 10.2026C13.4052 9.76289 13.4529 9.27907 13.36 8.8123C13.2672 8.34554 13.038 7.91678 12.7015 7.58026C12.365 7.24374 11.9362 7.01457 11.4694 6.92172C11.0027 6.82888 10.5189 6.87653 10.0792 7.05865C9.63948 7.24078 9.26368 7.54919 8.99928 7.9449C8.73487 8.3406 8.59375 8.80583 8.59375 9.28174" stroke="white" stroke-linecap="round" stroke-linejoin="round"/>
</svg>
