<svg width="48" height="48" viewBox="0 0 48 48" fill="none" xmlns="http://www.w3.org/2000/svg">
<rect width="48" height="48" rx="14.6087" fill="#DFE3FB"/>
<path d="M36.0854 24.556C35.2542 31.5727 30.4107 35.844 23.5332 35.844C16.6557 35.844 11.1087 29.8449 11.5797 22.9875C12.0904 15.5526 17.5588 11.0872 24.4363 11.0872C32.1154 11.0872 36.9166 17.5393 36.0854 24.556Z" fill="white" stroke="black" stroke-width="0.662069"/>
<path d="M23.9053 12.4688V15.1778" stroke="black" stroke-width="0.662069" stroke-linecap="square" stroke-linejoin="round"/>
<path d="M34.4131 23.4653L31.704 23.4653" stroke="black" stroke-width="0.662069" stroke-linecap="square" stroke-linejoin="round"/>
<path d="M23.9053 31.7537V34.4627" stroke="black" stroke-width="0.662069" stroke-linecap="square" stroke-linejoin="round"/>
<path d="M15.7119 23.4653L13.0029 23.4653" stroke="black" stroke-width="0.662069" stroke-linecap="square" stroke-linejoin="round"/>
<path d="M24.0003 24.1072L25.446 11.0344L27.9611 11.4722L30.1206 12.3727L31.9666 13.4777L34.0925 15.6036L35.4337 18.4719L35.9119 20.0125L24.0003 24.1072Z" fill="#EC8080"/>
<path d="M26.5386 16.5451L23.9995 24.1073L28.4639 20.8577" stroke="black" stroke-width="0.662069" stroke-linecap="square" stroke-linejoin="bevel"/>
<path d="M36.0854 24.556C35.2542 31.5727 30.4107 35.844 23.5332 35.844C16.6557 35.844 11.1087 29.8449 11.5797 22.9875C12.0904 15.5526 17.5588 11.0872 24.4363 11.0872C32.1154 11.0872 36.9166 17.5393 36.0854 24.556Z" stroke="black" stroke-width="0.662069"/>
</svg>
