<svg width="48" height="48" viewBox="0 0 48 48" fill="none" xmlns="http://www.w3.org/2000/svg">
<rect width="48" height="48" rx="14.6087" fill="#FFF3E7"/>
<g clip-path="url(#clip0)">
<path fill-rule="evenodd" clip-rule="evenodd" d="M29.391 22.1021C31.186 23.0533 33.7562 22.5203 35.6058 20.6708C37.7797 18.4968 39.3717 14.0902 37.6356 12.3541C35.8995 10.618 31.4929 12.21 29.3189 14.3839C27.4696 16.2333 26.9365 18.8033 27.8873 20.5982L14.8212 31.9298C13.815 32.8025 13.7602 34.3455 14.702 35.2873C15.6438 36.2291 17.1869 36.1743 18.0595 35.1681L29.391 22.1021Z" fill="#E3EEFF"/>
<path d="M29.391 22.1021L29.5392 21.8224L29.3168 21.7046L29.1519 21.8947L29.391 22.1021ZM27.8873 20.5982L28.0947 20.8374L28.2849 20.6725L28.1671 20.4501L27.8873 20.5982ZM14.8212 31.9298L14.6138 31.6907L14.8212 31.9298ZM18.0595 35.1681L17.8204 34.9607L18.0595 35.1681ZM35.3819 20.4469C33.6031 22.2257 31.1801 22.6919 29.5392 21.8224L29.2428 22.3818C31.1919 23.4146 33.9093 22.8148 35.8296 20.8946L35.3819 20.4469ZM37.4118 12.5779C37.7784 12.9445 37.9847 13.4669 38.0412 14.1081C38.0978 14.75 38.0017 15.4914 37.7825 16.2616C37.3432 17.8047 36.4276 19.4013 35.3819 20.4469L35.8296 20.8946C36.9579 19.7663 37.9252 18.0726 38.3914 16.4349C38.6249 15.6146 38.7371 14.793 38.6719 14.0525C38.6065 13.3112 38.3608 12.6317 37.8594 12.1303L37.4118 12.5779ZM29.5428 14.6078C30.5884 13.5621 32.185 12.6465 33.7281 12.2072C34.4983 11.988 35.2397 11.8919 35.8816 11.9485C36.5228 12.005 37.0452 12.2113 37.4118 12.5779L37.8594 12.1303C37.358 11.6289 36.6785 11.3832 35.9372 11.3178C35.1967 11.2526 34.3751 11.3648 33.5548 11.5983C31.9171 12.0645 30.2234 13.0318 29.0951 14.1601L29.5428 14.6078ZM28.1671 20.4501C27.2979 18.8092 27.7641 16.3864 29.5428 14.6078L29.0951 14.1601C27.175 16.0802 26.5752 18.7973 27.6076 20.7464L28.1671 20.4501ZM15.0286 32.1689L28.0947 20.8374L27.68 20.3591L14.6138 31.6907L15.0286 32.1689ZM14.9259 35.0635C14.1139 34.2515 14.1611 32.9213 15.0286 32.1689L14.6138 31.6907C13.4689 32.6837 13.4065 34.4394 14.4782 35.5111L14.9259 35.0635ZM17.8204 34.9607C17.0681 35.8282 15.7378 35.8754 14.9259 35.0635L14.4782 35.5111C15.5499 36.5828 17.3057 36.5205 18.2986 35.3755L17.8204 34.9607ZM29.1519 21.8947L17.8204 34.9607L18.2986 35.3755L29.6301 22.3095L29.1519 21.8947Z" fill="black"/>
<path fill-rule="evenodd" clip-rule="evenodd" d="M10.4476 14.6066L9.60107 15.4531L14.0614 21.5072C15.4369 23.2161 17.8166 23.5865 19.6171 22.533L30.5952 35.1915C31.4678 36.1977 33.0108 36.2525 33.9527 35.3107C34.8945 34.3689 34.8397 32.8259 33.8335 31.9532L21.1749 20.975C22.228 19.1746 21.8575 16.7953 20.1487 15.4198L14.1862 10.868L13.314 11.7402L18.6976 16.7059C18.9063 16.9146 18.8666 17.2928 18.4886 17.6708C18.2799 17.8795 17.9414 17.8795 17.7327 17.6708L12.3182 12.736L11.4691 13.5851L16.3782 19.0253C16.5869 19.234 16.5869 19.5725 16.3782 19.7812C16.0002 20.1592 15.6378 20.1831 15.4291 19.9744L10.4476 14.6066Z" fill="#C6DDFF"/>
<path d="M9.60107 15.4531L9.37725 15.2293L9.18479 15.4218L9.34623 15.6409L9.60107 15.4531ZM10.4476 14.6066L10.6796 14.3913L10.4561 14.1504L10.2238 14.3828L10.4476 14.6066ZM14.0614 21.5072L13.8063 21.6951L13.8148 21.7056L14.0614 21.5072ZM19.6171 22.533L19.8562 22.3256L19.6841 22.1271L19.4573 22.2598L19.6171 22.533ZM30.5952 35.1915L30.8343 34.9841L30.5952 35.1915ZM33.8335 31.9532L33.6261 32.1923L33.8335 31.9532ZM21.1749 20.975L20.9016 20.8152L20.769 21.042L20.9675 21.2142L21.1749 20.975ZM20.1487 15.4198L20.3472 15.1732L20.3408 15.1682L20.1487 15.4198ZM14.1862 10.868L14.3783 10.6164L14.1582 10.4484L13.9624 10.6442L14.1862 10.868ZM13.314 11.7402L13.0902 11.5164L12.8571 11.7494L13.0994 11.9729L13.314 11.7402ZM18.6976 16.7059L18.9216 16.4819L18.9122 16.4732L18.6976 16.7059ZM17.7327 17.6708L17.9565 17.447L17.9513 17.4418L17.9459 17.4368L17.7327 17.6708ZM12.3182 12.736L12.5314 12.5021L12.308 12.2985L12.0944 12.5122L12.3182 12.736ZM11.4691 13.5851L11.2453 13.3613L11.0326 13.5739L11.2341 13.7972L11.4691 13.5851ZM16.3782 19.0253L16.1432 19.2373L16.1486 19.2434L16.1544 19.2491L16.3782 19.0253ZM15.4291 19.9744L15.1969 20.1899L15.2052 20.1982L15.4291 19.9744ZM9.82489 15.677L10.6714 14.8304L10.2238 14.3828L9.37725 15.2293L9.82489 15.677ZM14.3162 21.3194L9.85591 15.2654L9.34623 15.6409L13.8065 21.6949L14.3162 21.3194ZM19.4573 22.2598C17.7883 23.2363 15.5826 22.8923 14.308 21.3087L13.8148 21.7056C15.2913 23.54 17.8449 23.9367 19.777 22.8062L19.4573 22.2598ZM19.378 22.7404L30.356 35.3989L30.8343 34.9841L19.8562 22.3256L19.378 22.7404ZM30.356 35.3989C31.349 36.5439 33.1048 36.6062 34.1765 35.5345L33.7288 35.0869C32.9169 35.8988 31.5866 35.8516 30.8343 34.9841L30.356 35.3989ZM34.1765 35.5345C35.2481 34.4628 35.1858 32.7071 34.0408 31.7141L33.6261 32.1923C34.4936 32.9447 34.5408 34.2749 33.7288 35.0869L34.1765 35.5345ZM34.0408 31.7141L21.3823 20.7359L20.9675 21.2142L33.6261 32.1923L34.0408 31.7141ZM19.9502 15.6664C21.5336 16.9409 21.8778 19.1464 20.9016 20.8152L21.4481 21.1349C22.5782 19.2028 22.1814 16.6496 20.3472 15.1732L19.9502 15.6664ZM13.9941 11.1196L19.9566 15.6714L20.3408 15.1682L14.3783 10.6164L13.9941 11.1196ZM13.5378 11.964L14.41 11.0918L13.9624 10.6442L13.0902 11.5164L13.5378 11.964ZM18.9122 16.4732L13.5286 11.5075L13.0994 11.9729L18.483 16.9386L18.9122 16.4732ZM18.7124 17.8946C18.932 17.6751 19.0783 17.4311 19.1244 17.1825C19.1718 16.9262 19.109 16.6697 18.9214 16.4821L18.4738 16.9297C18.4949 16.9508 18.5166 16.9878 18.5019 17.0672C18.4857 17.1544 18.4232 17.2885 18.2648 17.447L18.7124 17.8946ZM17.5089 17.8946C17.8412 18.227 18.3801 18.227 18.7124 17.8946L18.2648 17.447C18.1797 17.5321 18.0416 17.5321 17.9565 17.447L17.5089 17.8946ZM12.105 12.97L17.5195 17.9047L17.9459 17.4368L12.5314 12.5021L12.105 12.97ZM11.6929 13.8089L12.542 12.9598L12.0944 12.5122L11.2453 13.3613L11.6929 13.8089ZM16.6132 18.8132L11.7041 13.3731L11.2341 13.7972L16.1432 19.2373L16.6132 18.8132ZM16.602 20.005C16.9344 19.6727 16.9344 19.1338 16.602 18.8015L16.1544 19.2491C16.2395 19.3342 16.2395 19.4723 16.1544 19.5574L16.602 20.005ZM15.2052 20.1982C15.3863 20.3793 15.6336 20.4529 15.8919 20.4101C16.1406 20.3689 16.3826 20.2244 16.602 20.005L16.1544 19.5574C15.9958 19.716 15.8676 19.7724 15.7885 19.7855C15.7189 19.7971 15.6806 19.7783 15.6529 19.7506L15.2052 20.1982ZM10.2156 14.8219L15.1971 20.1897L15.6611 19.7591L10.6796 14.3913L10.2156 14.8219Z" fill="black"/>
</g>
<defs>
<clipPath id="clip0">
<rect width="30.5981" height="30.5981" fill="white" transform="translate(8.66602 8.40186)"/>
</clipPath>
</defs>
</svg>
