<svg width="48" height="48" viewBox="0 0 48 48" fill="none" xmlns="http://www.w3.org/2000/svg">
<rect width="48" height="48" rx="14.6087" fill="#FFE4EE"/>
<path d="M33.9704 13.1717C33.9704 14.4391 32.9015 15.561 31.4973 15.3304C30.2806 15.1307 29.5898 14.3273 29.5898 13.0599C29.5898 11.7925 30.6925 10.7059 32.0656 10.9113C33.4387 11.1173 33.9704 12.025 33.9704 13.1717Z" fill="#EC8080"/>
<path d="M38.8423 17.125C39.6066 18.136 39.4306 19.6755 38.1715 20.3385C37.0805 20.9129 36.045 20.6887 35.2807 19.6777C34.5163 18.6668 34.7405 17.135 35.9597 16.4708C37.1792 15.8069 38.1507 16.2103 38.8423 17.125Z" fill="#EC8080"/>
<path d="M35.3491 22.6746C36.1135 23.6856 35.9375 25.2251 34.6783 25.8881C33.5874 26.4625 32.5519 26.2383 31.7875 25.2273C31.0232 24.2163 31.2473 22.6846 32.4665 22.0203C33.686 21.3565 34.6575 21.7599 35.3491 22.6746Z" fill="#EC8080"/>
<path d="M30.5283 14.422L33.0331 11.8254" stroke="black" stroke-width="0.662069" stroke-linecap="square" stroke-linejoin="round"/>
<path d="M35.6659 17.2709L38.4672 19.5444" stroke="black" stroke-width="0.662069" stroke-linecap="square" stroke-linejoin="round"/>
<path d="M31.7809 23.7463L35.3639 24.1683" stroke="black" stroke-width="0.662069" stroke-linecap="square" stroke-linejoin="round"/>
<path d="M12.4545 25.4537C12.1944 24.7472 12.3124 23.9568 12.7675 23.3571L14.7934 20.6877C15.0481 20.352 15.3936 20.0964 15.7889 19.9508L20.7796 18.1134C21.1852 17.9641 21.6258 17.9372 22.0466 18.036L25.1999 18.7765C25.9217 18.946 26.5101 19.4667 26.7663 20.1625L30.4465 30.1586C30.8675 31.3024 30.2817 32.571 29.1379 32.9921L18.9609 36.7388C17.8171 37.1599 16.5485 36.5741 16.1274 35.4303L12.4545 25.4537Z" fill="white" stroke="black" stroke-width="0.662069"/>
<rect x="12.5918" y="18.3589" width="10.1006" height="3.4147" transform="rotate(-20.2116 12.5918 18.3589)" fill="white" stroke="black" stroke-width="0.662069" stroke-linejoin="round"/>
<rect x="14.8936" y="25.8816" width="10.9774" height="6.33916" transform="rotate(-20.2116 14.8936 25.8816)" fill="#74ABFF"/>
</svg>
