<svg width="28" height="28" viewBox="0 0 28 28" fill="none" xmlns="http://www.w3.org/2000/svg">
<path d="M7.98535 11.2475V21.8462C7.98535 24.0553 9.77621 25.8462 11.9854 25.8462H16.0147C18.2238 25.8462 20.0147 24.0553 20.0147 21.8462V11.3558C20.0147 10.0219 19.3497 8.77572 18.2416 8.03307L17.1288 7.28729C16.5748 6.91597 16.2423 6.29288 16.2423 5.6259V2.63403C16.2423 2.35789 16.0184 2.13403 15.7423 2.13403H11.9305C11.6543 2.13403 11.4305 2.35789 11.4305 2.63403V5.68009C11.4305 6.31694 11.1272 6.91571 10.6138 7.2925L9.61879 8.02266C8.59194 8.77623 7.98535 9.97378 7.98535 11.2475Z" stroke="#262626" stroke-width="1.6" stroke-linejoin="round"/>
<path d="M8.06494 13.0256H19.821" stroke="#262626" stroke-width="1.6"/>
<path d="M8.06494 19.7346H19.821" stroke="#262626" stroke-width="1.6"/>
</svg>
