<svg width="28" height="28" viewBox="0 0 28 28" fill="none" xmlns="http://www.w3.org/2000/svg">
<path d="M16.6034 10.2409C17.2991 7.9549 18.9048 5.56226 20.4191 4.43664C20.8921 4.08506 21.5072 4.39216 21.6001 4.97413C21.7955 6.19812 21.8202 7.80242 21.0818 9.47223C20.8962 9.89195 21.2841 10.4385 21.742 10.4085C23.504 10.2927 25.0545 10.8854 26.1671 11.6573C26.625 11.975 26.6364 12.6276 26.1932 12.9656C24.836 14.0007 22.837 14.7279 20.0503 14.0993C19.4074 13.9543 18.7458 14.3887 18.5842 15.0276C17.2661 20.2366 10.275 25.3533 2.37536 23.4322C1.49717 23.2186 0.937836 22.365 1.12375 21.4806C2.13319 16.6783 6.20006 11.2988 12.5454 10.2867" stroke="#262626" stroke-width="1.6" stroke-linecap="round" stroke-linejoin="round"/>
</svg>
