<svg width="24" height="24" viewBox="0 0 24 24" fill="none" xmlns="http://www.w3.org/2000/svg">
<path d="M12 21C16.9706 21 21 16.9706 21 12C21 7.02944 16.9706 3 12 3C7.02944 3 3 7.02944 3 12C3 16.9706 7.02944 21 12 21Z" fill="#4B5B75"/>
<path d="M12 18C12.6213 18 13.125 17.4963 13.125 16.875C13.125 16.2537 12.6213 15.75 12 15.75C11.3787 15.75 10.875 16.2537 10.875 16.875C10.875 17.4963 11.3787 18 12 18Z" fill="white"/>
<path d="M12 13.5007V12.7507C12.5192 12.7507 13.0267 12.5968 13.4584 12.3083C13.8901 12.0199 14.2265 11.6099 14.4252 11.1303C14.6239 10.6506 14.6758 10.1228 14.5746 9.61362C14.4733 9.10442 14.2233 8.63669 13.8562 8.26958C13.489 7.90247 13.0213 7.65246 12.5121 7.55117C12.0029 7.44989 11.4751 7.50187 10.9955 7.70055C10.5158 7.89923 10.1058 8.23568 9.81739 8.66736C9.52895 9.09904 9.375 9.60656 9.375 10.1257" stroke="white" stroke-width="2" stroke-linecap="round" stroke-linejoin="round"/>
</svg>
