<svg width="26" height="26" viewBox="0 0 26 26" fill="none" xmlns="http://www.w3.org/2000/svg">
<path d="M15.4182 9.50946C16.0546 7.41843 17.5108 5.23136 18.8983 4.1674C19.3659 3.80877 19.982 4.11368 20.07 4.69641C20.2369 5.80159 20.2466 7.22551 19.6137 8.71031C19.4338 9.13249 19.825 9.68279 20.2834 9.65957C21.8495 9.58023 23.2303 10.1005 24.2388 10.7835C24.7002 11.0961 24.7123 11.75 24.2653 12.083C23.0214 13.0097 21.2112 13.6516 18.7099 13.1123C18.0657 12.9734 17.4038 13.4077 17.234 14.0445C15.9589 18.8268 9.5585 23.4859 2.31213 21.7837C1.43229 21.5771 0.872996 20.7225 1.06711 19.8398C2.04172 15.4078 5.80477 10.4843 11.6501 9.55194" stroke="#4B5B75" stroke-width="1.3" stroke-linecap="round" stroke-linejoin="round"/>
</svg>
