<svg width="64" height="64" viewBox="0 0 64 64" fill="none" xmlns="http://www.w3.org/2000/svg">
<circle cx="32" cy="32" r="32" fill="#8ACFE7"/>
<path d="M27.4583 40.0667L25.9375 35.8375H20.1146L18.625 40.0667H16L21.6979 24.775H24.4062L30.1042 40.0667H27.4583ZM25.2812 33.6917L23.8542 29.5458C23.75 29.268 23.6042 28.8305 23.4167 28.2333C23.2361 27.6361 23.1111 27.1986 23.0417 26.9208C22.8542 27.775 22.5799 28.709 22.2187 29.7229L20.8437 33.6917H25.2812ZM46.4887 32.4312C46.4887 34.9104 45.8672 36.8375 44.6242 38.2125C43.3881 39.5875 41.6346 40.275 39.3637 40.275C37.0651 40.275 35.2978 39.5944 34.0617 38.2333C32.8325 36.8653 32.2179 34.9243 32.2179 32.4104C32.2179 29.8965 32.836 27.966 34.0721 26.6187C35.3151 25.2715 37.086 24.5979 39.3846 24.5979C41.6485 24.5979 43.3985 25.2819 44.6346 26.65C45.8707 28.018 46.4887 29.9451 46.4887 32.4312ZM34.8637 32.4312C34.8637 34.3062 35.2422 35.7298 35.9992 36.7021C36.7561 37.6673 37.8776 38.15 39.3637 38.15C40.8429 38.15 41.9575 37.6708 42.7075 36.7125C43.4644 35.7542 43.8429 34.3271 43.8429 32.4312C43.8429 30.5632 43.4679 29.1465 42.7179 28.1812C41.9749 27.216 40.8637 26.7333 39.3846 26.7333C37.8915 26.7333 36.7631 27.216 35.9992 28.1812C35.2422 29.1465 34.8637 30.5632 34.8637 32.4312Z" fill="white"/>
</svg>
